%TF.GenerationSoftware,Altium Limited,Altium Designer,23.10.1 (27)*%
G04 Layer_Physical_Order=2*
G04 Layer_Color=16711680*
%FSLAX45Y45*%
%MOMM*%
%TF.SameCoordinates,F6A67EC3-CF4D-4AC4-9858-863E4A550454*%
%TF.FilePolarity,Positive*%
%TF.FileFunction,Copper,L2,Bot,Signal*%
%TF.Part,Single*%
G01*
G75*
%TA.AperFunction,Conductor*%
%ADD10C,0.25400*%
%TA.AperFunction,ViaPad*%
%ADD12C,3.50000*%
%TA.AperFunction,ComponentPad*%
%ADD13C,1.52400*%
G04:AMPARAMS|DCode=14|XSize=1.4mm|YSize=1.4mm|CornerRadius=0.35mm|HoleSize=0mm|Usage=FLASHONLY|Rotation=180.000|XOffset=0mm|YOffset=0mm|HoleType=Round|Shape=RoundedRectangle|*
%AMROUNDEDRECTD14*
21,1,1.40000,0.70000,0,0,180.0*
21,1,0.70000,1.40000,0,0,180.0*
1,1,0.70000,-0.35000,0.35000*
1,1,0.70000,0.35000,0.35000*
1,1,0.70000,0.35000,-0.35000*
1,1,0.70000,-0.35000,-0.35000*
%
%ADD14ROUNDEDRECTD14*%
%ADD15C,1.40000*%
%ADD16C,3.20000*%
%ADD17R,1.52400X1.52400*%
%ADD18C,1.25000*%
%ADD19R,1.25000X1.25000*%
%ADD20C,1.30000*%
%ADD21R,1.30000X1.30000*%
%TA.AperFunction,ViaPad*%
%ADD22C,1.27000*%
G36*
X15113000Y127000D02*
X127000D01*
Y10033000D01*
X15113000D01*
Y127000D01*
D02*
G37*
%LPC*%
G36*
X14840639Y10004800D02*
X14833600D01*
Y9817100D01*
X15021300D01*
Y9824138D01*
X15013599Y9862855D01*
X14998492Y9899325D01*
X14976561Y9932148D01*
X14948648Y9960061D01*
X14915825Y9981992D01*
X14879355Y9997099D01*
X14840639Y10004800D01*
D02*
G37*
G36*
X14808200D02*
X14801163D01*
X14762445Y9997099D01*
X14725975Y9981992D01*
X14693152Y9960061D01*
X14665239Y9932148D01*
X14643307Y9899325D01*
X14628201Y9862855D01*
X14620500Y9824138D01*
Y9817100D01*
X14808200D01*
Y10004800D01*
D02*
G37*
G36*
X362638D02*
X355600D01*
Y9817100D01*
X543300D01*
Y9824138D01*
X535599Y9862855D01*
X520492Y9899325D01*
X498561Y9932148D01*
X470648Y9960061D01*
X437825Y9981992D01*
X401355Y9997099D01*
X362638Y10004800D01*
D02*
G37*
G36*
X330200D02*
X323162D01*
X284445Y9997099D01*
X247975Y9981992D01*
X215152Y9960061D01*
X187239Y9932148D01*
X165308Y9899325D01*
X150201Y9862855D01*
X142500Y9824138D01*
Y9817100D01*
X330200D01*
Y10004800D01*
D02*
G37*
G36*
X15021300Y9791700D02*
X14833600D01*
Y9604000D01*
X14840639D01*
X14879355Y9611701D01*
X14915825Y9626808D01*
X14948648Y9648739D01*
X14976561Y9676652D01*
X14998492Y9709475D01*
X15013599Y9745945D01*
X15021300Y9784662D01*
Y9791700D01*
D02*
G37*
G36*
X14808200D02*
X14620500D01*
Y9784662D01*
X14628201Y9745945D01*
X14643307Y9709475D01*
X14665239Y9676652D01*
X14693152Y9648739D01*
X14725975Y9626808D01*
X14762445Y9611701D01*
X14801163Y9604000D01*
X14808200D01*
Y9791700D01*
D02*
G37*
G36*
X543300D02*
X355600D01*
Y9604000D01*
X362638D01*
X401355Y9611701D01*
X437825Y9626808D01*
X470648Y9648739D01*
X498561Y9676652D01*
X520492Y9709475D01*
X535599Y9745945D01*
X543300Y9784662D01*
Y9791700D01*
D02*
G37*
G36*
X330200D02*
X142500D01*
Y9784662D01*
X150201Y9745945D01*
X165308Y9709475D01*
X187239Y9676652D01*
X215152Y9648739D01*
X247975Y9626808D01*
X284445Y9611701D01*
X323162Y9604000D01*
X330200D01*
Y9791700D01*
D02*
G37*
G36*
X2743876Y9194800D02*
X2743200D01*
Y9105900D01*
X2832100D01*
Y9106576D01*
X2825176Y9132416D01*
X2811800Y9155584D01*
X2792884Y9174500D01*
X2769716Y9187876D01*
X2743876Y9194800D01*
D02*
G37*
G36*
X2717800D02*
X2717124D01*
X2691284Y9187876D01*
X2668116Y9174500D01*
X2649200Y9155584D01*
X2635824Y9132416D01*
X2628900Y9106576D01*
Y9105900D01*
X2717800D01*
Y9194800D01*
D02*
G37*
G36*
X2997876D02*
X2971124D01*
X2945284Y9187876D01*
X2922116Y9174500D01*
X2903200Y9155584D01*
X2889824Y9132416D01*
X2882900Y9106576D01*
Y9079824D01*
X2889824Y9053984D01*
X2903200Y9030816D01*
X2922116Y9011900D01*
X2945284Y8998524D01*
X2971124Y8991600D01*
X2997876D01*
X3023716Y8998524D01*
X3046884Y9011900D01*
X3065800Y9030816D01*
X3079176Y9053984D01*
X3086100Y9079824D01*
Y9106576D01*
X3079176Y9132416D01*
X3065800Y9155584D01*
X3046884Y9174500D01*
X3023716Y9187876D01*
X2997876Y9194800D01*
D02*
G37*
G36*
X2832100Y9080500D02*
X2743200D01*
Y8991600D01*
X2743876D01*
X2769716Y8998524D01*
X2792884Y9011900D01*
X2811800Y9030816D01*
X2825176Y9053984D01*
X2832100Y9079824D01*
Y9080500D01*
D02*
G37*
G36*
X2717800D02*
X2628900D01*
Y9079824D01*
X2635824Y9053984D01*
X2649200Y9030816D01*
X2668116Y9011900D01*
X2691284Y8998524D01*
X2717124Y8991600D01*
X2717800D01*
Y9080500D01*
D02*
G37*
G36*
X7639738Y8455400D02*
X7632700D01*
Y8267700D01*
X7820400D01*
Y8274738D01*
X7812699Y8313455D01*
X7797592Y8349925D01*
X7775661Y8382748D01*
X7747748Y8410661D01*
X7714925Y8432592D01*
X7678455Y8447699D01*
X7639738Y8455400D01*
D02*
G37*
G36*
X7607300D02*
X7600262D01*
X7561545Y8447699D01*
X7525075Y8432592D01*
X7492252Y8410661D01*
X7464339Y8382748D01*
X7442408Y8349925D01*
X7427301Y8313455D01*
X7419600Y8274738D01*
Y8267700D01*
X7607300D01*
Y8455400D01*
D02*
G37*
G36*
X7820400Y8242300D02*
X7632700D01*
Y8054600D01*
X7639738D01*
X7678455Y8062301D01*
X7714925Y8077408D01*
X7747748Y8099339D01*
X7775661Y8127252D01*
X7797592Y8160075D01*
X7812699Y8196545D01*
X7820400Y8235262D01*
Y8242300D01*
D02*
G37*
G36*
X7607300D02*
X7419600D01*
Y8235262D01*
X7427301Y8196545D01*
X7442408Y8160075D01*
X7464339Y8127252D01*
X7492252Y8099339D01*
X7525075Y8077408D01*
X7561545Y8062301D01*
X7600262Y8054600D01*
X7607300D01*
Y8242300D01*
D02*
G37*
G36*
X11252876Y8115300D02*
X11252200D01*
Y8026400D01*
X11341100D01*
Y8027076D01*
X11334176Y8052916D01*
X11320800Y8076084D01*
X11301884Y8095000D01*
X11278716Y8108376D01*
X11252876Y8115300D01*
D02*
G37*
G36*
X11226800D02*
X11226124D01*
X11200284Y8108376D01*
X11177116Y8095000D01*
X11158200Y8076084D01*
X11144824Y8052916D01*
X11137900Y8027076D01*
Y8026400D01*
X11226800D01*
Y8115300D01*
D02*
G37*
G36*
X12776876D02*
X12750124D01*
X12724284Y8108376D01*
X12701116Y8095000D01*
X12682200Y8076084D01*
X12668824Y8052916D01*
X12661900Y8027076D01*
Y8000324D01*
X12668824Y7974484D01*
X12682200Y7951316D01*
X12701116Y7932400D01*
X12724284Y7919024D01*
X12750124Y7912100D01*
X12776876D01*
X12802716Y7919024D01*
X12825883Y7932400D01*
X12844800Y7951316D01*
X12858176Y7974484D01*
X12865100Y8000324D01*
Y8027076D01*
X12858176Y8052916D01*
X12844800Y8076084D01*
X12825883Y8095000D01*
X12802716Y8108376D01*
X12776876Y8115300D01*
D02*
G37*
G36*
X12522876D02*
X12496124D01*
X12470284Y8108376D01*
X12447116Y8095000D01*
X12428200Y8076084D01*
X12414824Y8052916D01*
X12407900Y8027076D01*
Y8000324D01*
X12414824Y7974484D01*
X12428200Y7951316D01*
X12447116Y7932400D01*
X12470284Y7919024D01*
X12496124Y7912100D01*
X12522876D01*
X12548716Y7919024D01*
X12571884Y7932400D01*
X12590800Y7951316D01*
X12604176Y7974484D01*
X12611100Y8000324D01*
Y8027076D01*
X12604176Y8052916D01*
X12590800Y8076084D01*
X12571884Y8095000D01*
X12548716Y8108376D01*
X12522876Y8115300D01*
D02*
G37*
G36*
X12268876D02*
X12242124D01*
X12216284Y8108376D01*
X12193116Y8095000D01*
X12174200Y8076084D01*
X12160824Y8052916D01*
X12153900Y8027076D01*
Y8000324D01*
X12160824Y7974484D01*
X12174200Y7951316D01*
X12193116Y7932400D01*
X12216284Y7919024D01*
X12242124Y7912100D01*
X12268876D01*
X12294716Y7919024D01*
X12317884Y7932400D01*
X12336800Y7951316D01*
X12350176Y7974484D01*
X12357100Y8000324D01*
Y8027076D01*
X12350176Y8052916D01*
X12336800Y8076084D01*
X12317884Y8095000D01*
X12294716Y8108376D01*
X12268876Y8115300D01*
D02*
G37*
G36*
X12014876D02*
X11988124D01*
X11962284Y8108376D01*
X11939116Y8095000D01*
X11920200Y8076084D01*
X11906824Y8052916D01*
X11899900Y8027076D01*
Y8000324D01*
X11906824Y7974484D01*
X11920200Y7951316D01*
X11939116Y7932400D01*
X11962284Y7919024D01*
X11988124Y7912100D01*
X12014876D01*
X12040716Y7919024D01*
X12063884Y7932400D01*
X12082800Y7951316D01*
X12096176Y7974484D01*
X12103100Y8000324D01*
Y8027076D01*
X12096176Y8052916D01*
X12082800Y8076084D01*
X12063884Y8095000D01*
X12040716Y8108376D01*
X12014876Y8115300D01*
D02*
G37*
G36*
X11760876D02*
X11734124D01*
X11708284Y8108376D01*
X11685116Y8095000D01*
X11666200Y8076084D01*
X11652824Y8052916D01*
X11645900Y8027076D01*
Y8000324D01*
X11652824Y7974484D01*
X11666200Y7951316D01*
X11685116Y7932400D01*
X11708284Y7919024D01*
X11734124Y7912100D01*
X11760876D01*
X11786716Y7919024D01*
X11809884Y7932400D01*
X11828800Y7951316D01*
X11842176Y7974484D01*
X11849100Y8000324D01*
Y8027076D01*
X11842176Y8052916D01*
X11828800Y8076084D01*
X11809884Y8095000D01*
X11786716Y8108376D01*
X11760876Y8115300D01*
D02*
G37*
G36*
X11506876D02*
X11480124D01*
X11454284Y8108376D01*
X11431116Y8095000D01*
X11412200Y8076084D01*
X11398824Y8052916D01*
X11391900Y8027076D01*
Y8000324D01*
X11398824Y7974484D01*
X11412200Y7951316D01*
X11431116Y7932400D01*
X11454284Y7919024D01*
X11480124Y7912100D01*
X11506876D01*
X11532716Y7919024D01*
X11555884Y7932400D01*
X11574800Y7951316D01*
X11588176Y7974484D01*
X11595100Y8000324D01*
Y8027076D01*
X11588176Y8052916D01*
X11574800Y8076084D01*
X11555884Y8095000D01*
X11532716Y8108376D01*
X11506876Y8115300D01*
D02*
G37*
G36*
X11341100Y8001000D02*
X11252200D01*
Y7912100D01*
X11252876D01*
X11278716Y7919024D01*
X11301884Y7932400D01*
X11320800Y7951316D01*
X11334176Y7974484D01*
X11341100Y8000324D01*
Y8001000D01*
D02*
G37*
G36*
X11226800D02*
X11137900D01*
Y8000324D01*
X11144824Y7974484D01*
X11158200Y7951316D01*
X11177116Y7932400D01*
X11200284Y7919024D01*
X11226124Y7912100D01*
X11226800D01*
Y8001000D01*
D02*
G37*
G36*
X11087100Y8115300D02*
X10883900D01*
Y7912100D01*
X11087100D01*
Y8115300D01*
D02*
G37*
G36*
X4255176Y6997700D02*
X4254500D01*
Y6908800D01*
X4343400D01*
Y6909476D01*
X4336476Y6935316D01*
X4323100Y6958484D01*
X4304184Y6977400D01*
X4281016Y6990776D01*
X4255176Y6997700D01*
D02*
G37*
G36*
X1992036D02*
X1991360D01*
Y6908800D01*
X2080260D01*
Y6909476D01*
X2073336Y6935316D01*
X2059960Y6958484D01*
X2041044Y6977400D01*
X2017876Y6990776D01*
X1992036Y6997700D01*
D02*
G37*
G36*
X4229100D02*
X4228424D01*
X4202584Y6990776D01*
X4179416Y6977400D01*
X4160500Y6958484D01*
X4147124Y6935316D01*
X4140200Y6909476D01*
Y6908800D01*
X4229100D01*
Y6997700D01*
D02*
G37*
G36*
X1965960D02*
X1965284D01*
X1939444Y6990776D01*
X1916276Y6977400D01*
X1897360Y6958484D01*
X1883984Y6935316D01*
X1877060Y6909476D01*
Y6908800D01*
X1965960D01*
Y6997700D01*
D02*
G37*
G36*
X4343400Y6883400D02*
X4254500D01*
Y6794500D01*
X4255176D01*
X4281016Y6801424D01*
X4304184Y6814800D01*
X4323100Y6833716D01*
X4336476Y6856884D01*
X4343400Y6882724D01*
Y6883400D01*
D02*
G37*
G36*
X4229100D02*
X4140200D01*
Y6882724D01*
X4147124Y6856884D01*
X4160500Y6833716D01*
X4179416Y6814800D01*
X4202584Y6801424D01*
X4228424Y6794500D01*
X4229100D01*
Y6883400D01*
D02*
G37*
G36*
X2080260D02*
X1991360D01*
Y6794500D01*
X1992036D01*
X2017876Y6801424D01*
X2041044Y6814800D01*
X2059960Y6833716D01*
X2073336Y6856884D01*
X2080260Y6882724D01*
Y6883400D01*
D02*
G37*
G36*
X1965960D02*
X1877060D01*
Y6882724D01*
X1883984Y6856884D01*
X1897360Y6833716D01*
X1916276Y6814800D01*
X1939444Y6801424D01*
X1965284Y6794500D01*
X1965960D01*
Y6883400D01*
D02*
G37*
G36*
X10082672Y6785500D02*
X10059528D01*
X10037172Y6779510D01*
X10017128Y6767937D01*
X10000763Y6751572D01*
X9989190Y6731528D01*
X9983200Y6709172D01*
Y6686028D01*
X9989190Y6663672D01*
X10000763Y6643628D01*
X10017128Y6627263D01*
X10037172Y6615690D01*
X10059528Y6609700D01*
X10082672D01*
X10105028Y6615690D01*
X10125072Y6627263D01*
X10141437Y6643628D01*
X10153010Y6663672D01*
X10159000Y6686028D01*
Y6709172D01*
X10153010Y6731528D01*
X10141437Y6751572D01*
X10125072Y6767937D01*
X10105028Y6779510D01*
X10082672Y6785500D01*
D02*
G37*
G36*
X9009522D02*
X8986378D01*
X8964022Y6779510D01*
X8943978Y6767937D01*
X8927613Y6751572D01*
X8916040Y6731528D01*
X8910050Y6709172D01*
Y6686028D01*
X8916040Y6663672D01*
X8927613Y6643628D01*
X8943978Y6627263D01*
X8964022Y6615690D01*
X8986378Y6609700D01*
X9009522D01*
X9031878Y6615690D01*
X9051922Y6627263D01*
X9068287Y6643628D01*
X9079860Y6663672D01*
X9085850Y6686028D01*
Y6709172D01*
X9079860Y6731528D01*
X9068287Y6751572D01*
X9051922Y6767937D01*
X9031878Y6779510D01*
X9009522Y6785500D01*
D02*
G37*
G36*
X7936372D02*
X7913228D01*
X7890872Y6779510D01*
X7870828Y6767937D01*
X7854463Y6751572D01*
X7842890Y6731528D01*
X7836900Y6709172D01*
Y6686028D01*
X7842890Y6663672D01*
X7854463Y6643628D01*
X7870828Y6627263D01*
X7890872Y6615690D01*
X7913228Y6609700D01*
X7936372D01*
X7958728Y6615690D01*
X7978772Y6627263D01*
X7995137Y6643628D01*
X8006710Y6663672D01*
X8012700Y6686028D01*
Y6709172D01*
X8006710Y6731528D01*
X7995137Y6751572D01*
X7978772Y6767937D01*
X7958728Y6779510D01*
X7936372Y6785500D01*
D02*
G37*
G36*
X4255176Y6743700D02*
X4228424D01*
X4202584Y6736776D01*
X4179416Y6723400D01*
X4160500Y6704484D01*
X4147124Y6681316D01*
X4140200Y6655476D01*
Y6628724D01*
X4147124Y6602884D01*
X4160500Y6579716D01*
X4179416Y6560800D01*
X4202584Y6547424D01*
X4228424Y6540500D01*
X4255176D01*
X4281016Y6547424D01*
X4304184Y6560800D01*
X4323100Y6579716D01*
X4336476Y6602884D01*
X4343400Y6628724D01*
Y6655476D01*
X4336476Y6681316D01*
X4323100Y6704484D01*
X4304184Y6723400D01*
X4281016Y6736776D01*
X4255176Y6743700D01*
D02*
G37*
G36*
X1992036D02*
X1965284D01*
X1939444Y6736776D01*
X1916276Y6723400D01*
X1897360Y6704484D01*
X1883984Y6681316D01*
X1877060Y6655476D01*
Y6628724D01*
X1883984Y6602884D01*
X1897360Y6579716D01*
X1916276Y6560800D01*
X1939444Y6547424D01*
X1965284Y6540500D01*
X1992036D01*
X2017876Y6547424D01*
X2041044Y6560800D01*
X2059960Y6579716D01*
X2073336Y6602884D01*
X2080260Y6628724D01*
Y6655476D01*
X2073336Y6681316D01*
X2059960Y6704484D01*
X2041044Y6723400D01*
X2017876Y6736776D01*
X1992036Y6743700D01*
D02*
G37*
G36*
X4255176Y6489700D02*
X4228424D01*
X4202584Y6482776D01*
X4179416Y6469400D01*
X4160500Y6450484D01*
X4147124Y6427316D01*
X4140200Y6401476D01*
Y6374724D01*
X4147124Y6348884D01*
X4160500Y6325716D01*
X4179416Y6306800D01*
X4202584Y6293424D01*
X4228424Y6286500D01*
X4255176D01*
X4281016Y6293424D01*
X4304184Y6306800D01*
X4323100Y6325716D01*
X4336476Y6348884D01*
X4343400Y6374724D01*
Y6401476D01*
X4336476Y6427316D01*
X4323100Y6450484D01*
X4304184Y6469400D01*
X4281016Y6482776D01*
X4255176Y6489700D01*
D02*
G37*
G36*
X1992036D02*
X1965284D01*
X1939444Y6482776D01*
X1916276Y6469400D01*
X1897360Y6450484D01*
X1883984Y6427316D01*
X1877060Y6401476D01*
Y6374724D01*
X1883984Y6348884D01*
X1897360Y6325716D01*
X1916276Y6306800D01*
X1939444Y6293424D01*
X1965284Y6286500D01*
X1992036D01*
X2017876Y6293424D01*
X2041044Y6306800D01*
X2059960Y6325716D01*
X2073336Y6348884D01*
X2080260Y6374724D01*
Y6401476D01*
X2073336Y6427316D01*
X2059960Y6450484D01*
X2041044Y6469400D01*
X2017876Y6482776D01*
X1992036Y6489700D01*
D02*
G37*
G36*
X4255176Y6235700D02*
X4228424D01*
X4202584Y6228776D01*
X4179416Y6215400D01*
X4160500Y6196484D01*
X4147124Y6173316D01*
X4140200Y6147476D01*
Y6120724D01*
X4147124Y6094884D01*
X4160500Y6071716D01*
X4179416Y6052800D01*
X4202584Y6039424D01*
X4228424Y6032500D01*
X4255176D01*
X4281016Y6039424D01*
X4304184Y6052800D01*
X4323100Y6071716D01*
X4336476Y6094884D01*
X4343400Y6120724D01*
Y6147476D01*
X4336476Y6173316D01*
X4323100Y6196484D01*
X4304184Y6215400D01*
X4281016Y6228776D01*
X4255176Y6235700D01*
D02*
G37*
G36*
X1992036D02*
X1965284D01*
X1939444Y6228776D01*
X1916276Y6215400D01*
X1897360Y6196484D01*
X1883984Y6173316D01*
X1877060Y6147476D01*
Y6120724D01*
X1883984Y6094884D01*
X1897360Y6071716D01*
X1916276Y6052800D01*
X1939444Y6039424D01*
X1965284Y6032500D01*
X1992036D01*
X2017876Y6039424D01*
X2041044Y6052800D01*
X2059960Y6071716D01*
X2073336Y6094884D01*
X2080260Y6120724D01*
Y6147476D01*
X2073336Y6173316D01*
X2059960Y6196484D01*
X2041044Y6215400D01*
X2017876Y6228776D01*
X1992036Y6235700D01*
D02*
G37*
G36*
X11798976Y5981700D02*
X11772224D01*
X11746384Y5974776D01*
X11723216Y5961400D01*
X11704300Y5942484D01*
X11690924Y5919316D01*
X11684000Y5893476D01*
Y5866724D01*
X11690924Y5840884D01*
X11704300Y5817716D01*
X11723216Y5798800D01*
X11746384Y5785424D01*
X11772224Y5778500D01*
X11798976D01*
X11824816Y5785424D01*
X11847984Y5798800D01*
X11866900Y5817716D01*
X11880276Y5840884D01*
X11887200Y5866724D01*
Y5893476D01*
X11880276Y5919316D01*
X11866900Y5942484D01*
X11847984Y5961400D01*
X11824816Y5974776D01*
X11798976Y5981700D01*
D02*
G37*
G36*
X4255176D02*
X4228424D01*
X4202584Y5974776D01*
X4179416Y5961400D01*
X4160500Y5942484D01*
X4147124Y5919316D01*
X4140200Y5893476D01*
Y5866724D01*
X4147124Y5840884D01*
X4160500Y5817716D01*
X4179416Y5798800D01*
X4202584Y5785424D01*
X4228424Y5778500D01*
X4255176D01*
X4281016Y5785424D01*
X4304184Y5798800D01*
X4323100Y5817716D01*
X4336476Y5840884D01*
X4343400Y5866724D01*
Y5893476D01*
X4336476Y5919316D01*
X4323100Y5942484D01*
X4304184Y5961400D01*
X4281016Y5974776D01*
X4255176Y5981700D01*
D02*
G37*
G36*
X1992036D02*
X1965284D01*
X1939444Y5974776D01*
X1916276Y5961400D01*
X1897360Y5942484D01*
X1883984Y5919316D01*
X1877060Y5893476D01*
Y5866724D01*
X1883984Y5840884D01*
X1897360Y5817716D01*
X1916276Y5798800D01*
X1939444Y5785424D01*
X1965284Y5778500D01*
X1992036D01*
X2017876Y5785424D01*
X2041044Y5798800D01*
X2059960Y5817716D01*
X2073336Y5840884D01*
X2080260Y5866724D01*
Y5893476D01*
X2073336Y5919316D01*
X2059960Y5942484D01*
X2041044Y5961400D01*
X2017876Y5974776D01*
X1992036Y5981700D01*
D02*
G37*
G36*
X11798976Y5727700D02*
X11798300D01*
Y5638800D01*
X11887200D01*
Y5639476D01*
X11880276Y5665316D01*
X11866900Y5688484D01*
X11847984Y5707400D01*
X11824816Y5720776D01*
X11798976Y5727700D01*
D02*
G37*
G36*
X11772900D02*
X11772224D01*
X11746384Y5720776D01*
X11723216Y5707400D01*
X11704300Y5688484D01*
X11690924Y5665316D01*
X11684000Y5639476D01*
Y5638800D01*
X11772900D01*
Y5727700D01*
D02*
G37*
G36*
X9803404Y5791200D02*
X9779996D01*
X9757386Y5785142D01*
X9737114Y5773438D01*
X9720562Y5756886D01*
X9708858Y5736614D01*
X9702800Y5714004D01*
Y5690596D01*
X9707504Y5673041D01*
X9407309Y5372847D01*
X7378700D01*
X7366300Y5370380D01*
X7363834Y5369889D01*
X7351231Y5361469D01*
X5368709Y3378947D01*
X4715725D01*
X4706638Y3394686D01*
X4690086Y3411238D01*
X4669814Y3422942D01*
X4647204Y3429000D01*
X4623796D01*
X4601186Y3422942D01*
X4580914Y3411238D01*
X4564362Y3394686D01*
X4552658Y3374414D01*
X4546600Y3351804D01*
Y3328396D01*
X4552658Y3305786D01*
X4564362Y3285514D01*
X4580914Y3268962D01*
X4601186Y3257258D01*
X4623796Y3251200D01*
X4647204D01*
X4669814Y3257258D01*
X4690086Y3268962D01*
X4706638Y3285514D01*
X4715725Y3301253D01*
X5384800D01*
X5399666Y3304211D01*
X5412269Y3312631D01*
X7394791Y5295153D01*
X9423400D01*
X9438266Y5298111D01*
X9450869Y5306531D01*
X9762441Y5618104D01*
X9779996Y5613400D01*
X9803404D01*
X9826014Y5619458D01*
X9846286Y5631162D01*
X9862838Y5647714D01*
X9874542Y5667986D01*
X9880600Y5690596D01*
Y5714004D01*
X9874542Y5736614D01*
X9862838Y5756886D01*
X9846286Y5773438D01*
X9826014Y5785142D01*
X9803404Y5791200D01*
D02*
G37*
G36*
X10159000Y5785500D02*
X9983200D01*
Y5609700D01*
X10159000D01*
Y5785500D01*
D02*
G37*
G36*
X9085850D02*
X8910050D01*
Y5609700D01*
X9085850D01*
Y5785500D01*
D02*
G37*
G36*
X8012700D02*
X7836900D01*
Y5609700D01*
X8012700D01*
Y5785500D01*
D02*
G37*
G36*
X11887200Y5613400D02*
X11798300D01*
Y5524500D01*
X11798976D01*
X11824816Y5531424D01*
X11847984Y5544800D01*
X11866900Y5563716D01*
X11880276Y5586884D01*
X11887200Y5612724D01*
Y5613400D01*
D02*
G37*
G36*
X11772900D02*
X11684000D01*
Y5612724D01*
X11690924Y5586884D01*
X11704300Y5563716D01*
X11723216Y5544800D01*
X11746384Y5531424D01*
X11772224Y5524500D01*
X11772900D01*
Y5613400D01*
D02*
G37*
G36*
X4255176Y5727700D02*
X4228424D01*
X4202584Y5720776D01*
X4179416Y5707400D01*
X4160500Y5688484D01*
X4147124Y5665316D01*
X4140200Y5639476D01*
Y5612724D01*
X4147124Y5586884D01*
X4160500Y5563716D01*
X4179416Y5544800D01*
X4202584Y5531424D01*
X4228424Y5524500D01*
X4255176D01*
X4281016Y5531424D01*
X4304184Y5544800D01*
X4323100Y5563716D01*
X4336476Y5586884D01*
X4343400Y5612724D01*
Y5639476D01*
X4336476Y5665316D01*
X4323100Y5688484D01*
X4304184Y5707400D01*
X4281016Y5720776D01*
X4255176Y5727700D01*
D02*
G37*
G36*
X1992036D02*
X1965284D01*
X1939444Y5720776D01*
X1916276Y5707400D01*
X1897360Y5688484D01*
X1883984Y5665316D01*
X1877060Y5639476D01*
Y5612724D01*
X1883984Y5586884D01*
X1897360Y5563716D01*
X1916276Y5544800D01*
X1939444Y5531424D01*
X1965284Y5524500D01*
X1992036D01*
X2017876Y5531424D01*
X2041044Y5544800D01*
X2059960Y5563716D01*
X2073336Y5586884D01*
X2080260Y5612724D01*
Y5639476D01*
X2073336Y5665316D01*
X2059960Y5688484D01*
X2041044Y5707400D01*
X2017876Y5720776D01*
X1992036Y5727700D01*
D02*
G37*
G36*
X7199904Y5537200D02*
X7176496D01*
X7153886Y5531142D01*
X7133614Y5519438D01*
X7117062Y5502886D01*
X7105358Y5482614D01*
X7099300Y5460004D01*
Y5436596D01*
X7104004Y5419041D01*
X5571909Y3886947D01*
X4715725D01*
X4706638Y3902686D01*
X4690086Y3919238D01*
X4669814Y3930942D01*
X4647204Y3937000D01*
X4623796D01*
X4601186Y3930942D01*
X4580914Y3919238D01*
X4564362Y3902686D01*
X4552658Y3882414D01*
X4546600Y3859804D01*
Y3836396D01*
X4552658Y3813786D01*
X4564362Y3793514D01*
X4580914Y3776962D01*
X4601186Y3765258D01*
X4623796Y3759200D01*
X4647204D01*
X4669814Y3765258D01*
X4690086Y3776962D01*
X4706638Y3793514D01*
X4715725Y3809253D01*
X5588000D01*
X5602866Y3812211D01*
X5615469Y3820631D01*
X7158941Y5364104D01*
X7176496Y5359400D01*
X7199904D01*
X7222514Y5365458D01*
X7242786Y5377162D01*
X7259338Y5393714D01*
X7271042Y5413986D01*
X7277100Y5436596D01*
Y5460004D01*
X7271042Y5482614D01*
X7259338Y5502886D01*
X7242786Y5519438D01*
X7222514Y5531142D01*
X7199904Y5537200D01*
D02*
G37*
G36*
X6869704D02*
X6846296D01*
X6823686Y5531142D01*
X6803414Y5519438D01*
X6786862Y5502886D01*
X6775158Y5482614D01*
X6769100Y5460004D01*
Y5436596D01*
X6773804Y5419041D01*
X5495709Y4140947D01*
X4715725D01*
X4706638Y4156686D01*
X4690086Y4173238D01*
X4669814Y4184942D01*
X4647204Y4191000D01*
X4623796D01*
X4601186Y4184942D01*
X4580914Y4173238D01*
X4564362Y4156686D01*
X4552658Y4136414D01*
X4546600Y4113804D01*
Y4090396D01*
X4552658Y4067786D01*
X4564362Y4047514D01*
X4580914Y4030962D01*
X4601186Y4019258D01*
X4623796Y4013200D01*
X4647204D01*
X4669814Y4019258D01*
X4690086Y4030962D01*
X4706638Y4047514D01*
X4715725Y4063253D01*
X5511800D01*
X5526666Y4066211D01*
X5539269Y4074631D01*
X6828741Y5364104D01*
X6846296Y5359400D01*
X6869704D01*
X6892314Y5365458D01*
X6912586Y5377162D01*
X6929138Y5393714D01*
X6940842Y5413986D01*
X6946900Y5436596D01*
Y5460004D01*
X6940842Y5482614D01*
X6929138Y5502886D01*
X6912586Y5519438D01*
X6892314Y5531142D01*
X6869704Y5537200D01*
D02*
G37*
G36*
X11798976Y5473700D02*
X11772224D01*
X11746384Y5466776D01*
X11723216Y5453400D01*
X11704300Y5434484D01*
X11690924Y5411316D01*
X11684000Y5385476D01*
Y5358724D01*
X11690924Y5332884D01*
X11704300Y5309716D01*
X11723216Y5290800D01*
X11746384Y5277424D01*
X11772224Y5270500D01*
X11798976D01*
X11824816Y5277424D01*
X11847984Y5290800D01*
X11866900Y5309716D01*
X11880276Y5332884D01*
X11887200Y5358724D01*
Y5385476D01*
X11880276Y5411316D01*
X11866900Y5434484D01*
X11847984Y5453400D01*
X11824816Y5466776D01*
X11798976Y5473700D01*
D02*
G37*
G36*
X4255176D02*
X4228424D01*
X4202584Y5466776D01*
X4179416Y5453400D01*
X4160500Y5434484D01*
X4147124Y5411316D01*
X4140200Y5385476D01*
Y5358724D01*
X4147124Y5332884D01*
X4160500Y5309716D01*
X4179416Y5290800D01*
X4202584Y5277424D01*
X4228424Y5270500D01*
X4255176D01*
X4281016Y5277424D01*
X4304184Y5290800D01*
X4323100Y5309716D01*
X4336476Y5332884D01*
X4343400Y5358724D01*
Y5385476D01*
X4336476Y5411316D01*
X4323100Y5434484D01*
X4304184Y5453400D01*
X4281016Y5466776D01*
X4255176Y5473700D01*
D02*
G37*
G36*
X1992036D02*
X1965284D01*
X1939444Y5466776D01*
X1916276Y5453400D01*
X1897360Y5434484D01*
X1883984Y5411316D01*
X1877060Y5385476D01*
Y5358724D01*
X1883984Y5332884D01*
X1897360Y5309716D01*
X1916276Y5290800D01*
X1939444Y5277424D01*
X1965284Y5270500D01*
X1992036D01*
X2017876Y5277424D01*
X2041044Y5290800D01*
X2059960Y5309716D01*
X2073336Y5332884D01*
X2080260Y5358724D01*
Y5385476D01*
X2073336Y5411316D01*
X2059960Y5434484D01*
X2041044Y5453400D01*
X2017876Y5466776D01*
X1992036Y5473700D01*
D02*
G37*
G36*
X11798976Y5219700D02*
X11772224D01*
X11746384Y5212776D01*
X11723216Y5199400D01*
X11704300Y5180484D01*
X11690924Y5157316D01*
X11684000Y5131476D01*
Y5104724D01*
X11690924Y5078884D01*
X11704300Y5055716D01*
X11723216Y5036800D01*
X11746384Y5023424D01*
X11772224Y5016500D01*
X11798976D01*
X11824816Y5023424D01*
X11847984Y5036800D01*
X11866900Y5055716D01*
X11880276Y5078884D01*
X11887200Y5104724D01*
Y5131476D01*
X11880276Y5157316D01*
X11866900Y5180484D01*
X11847984Y5199400D01*
X11824816Y5212776D01*
X11798976Y5219700D01*
D02*
G37*
G36*
X4255176D02*
X4228424D01*
X4202584Y5212776D01*
X4179416Y5199400D01*
X4160500Y5180484D01*
X4147124Y5157316D01*
X4140200Y5131476D01*
Y5104724D01*
X4147124Y5078884D01*
X4160500Y5055716D01*
X4179416Y5036800D01*
X4202584Y5023424D01*
X4228424Y5016500D01*
X4255176D01*
X4281016Y5023424D01*
X4304184Y5036800D01*
X4323100Y5055716D01*
X4336476Y5078884D01*
X4343400Y5104724D01*
Y5131476D01*
X4336476Y5157316D01*
X4323100Y5180484D01*
X4304184Y5199400D01*
X4281016Y5212776D01*
X4255176Y5219700D01*
D02*
G37*
G36*
X1992036D02*
X1965284D01*
X1939444Y5212776D01*
X1916276Y5199400D01*
X1897360Y5180484D01*
X1883984Y5157316D01*
X1877060Y5131476D01*
Y5104724D01*
X1883984Y5078884D01*
X1897360Y5055716D01*
X1916276Y5036800D01*
X1939444Y5023424D01*
X1965284Y5016500D01*
X1992036D01*
X2017876Y5023424D01*
X2041044Y5036800D01*
X2059960Y5055716D01*
X2073336Y5078884D01*
X2080260Y5104724D01*
Y5131476D01*
X2073336Y5157316D01*
X2059960Y5180484D01*
X2041044Y5199400D01*
X2017876Y5212776D01*
X1992036Y5219700D01*
D02*
G37*
G36*
X11798976Y4965700D02*
X11772224D01*
X11746384Y4958776D01*
X11723216Y4945400D01*
X11704300Y4926484D01*
X11690924Y4903316D01*
X11684000Y4877476D01*
Y4850724D01*
X11690924Y4824884D01*
X11704300Y4801716D01*
X11723216Y4782800D01*
X11746384Y4769424D01*
X11772224Y4762500D01*
X11798976D01*
X11824816Y4769424D01*
X11847984Y4782800D01*
X11866900Y4801716D01*
X11880276Y4824884D01*
X11887200Y4850724D01*
Y4877476D01*
X11880276Y4903316D01*
X11866900Y4926484D01*
X11847984Y4945400D01*
X11824816Y4958776D01*
X11798976Y4965700D01*
D02*
G37*
G36*
X4255176D02*
X4228424D01*
X4202584Y4958776D01*
X4179416Y4945400D01*
X4160500Y4926484D01*
X4147124Y4903316D01*
X4140200Y4877476D01*
Y4850724D01*
X4147124Y4824884D01*
X4160500Y4801716D01*
X4179416Y4782800D01*
X4202584Y4769424D01*
X4228424Y4762500D01*
X4255176D01*
X4281016Y4769424D01*
X4304184Y4782800D01*
X4323100Y4801716D01*
X4336476Y4824884D01*
X4343400Y4850724D01*
Y4877476D01*
X4336476Y4903316D01*
X4323100Y4926484D01*
X4304184Y4945400D01*
X4281016Y4958776D01*
X4255176Y4965700D01*
D02*
G37*
G36*
X1992036D02*
X1965284D01*
X1939444Y4958776D01*
X1916276Y4945400D01*
X1897360Y4926484D01*
X1883984Y4903316D01*
X1877060Y4877476D01*
Y4850724D01*
X1883984Y4824884D01*
X1897360Y4801716D01*
X1916276Y4782800D01*
X1939444Y4769424D01*
X1965284Y4762500D01*
X1992036D01*
X2017876Y4769424D01*
X2041044Y4782800D01*
X2059960Y4801716D01*
X2073336Y4824884D01*
X2080260Y4850724D01*
Y4877476D01*
X2073336Y4903316D01*
X2059960Y4926484D01*
X2041044Y4945400D01*
X2017876Y4958776D01*
X1992036Y4965700D01*
D02*
G37*
G36*
X11798976Y4711700D02*
X11772224D01*
X11746384Y4704776D01*
X11723216Y4691400D01*
X11704300Y4672484D01*
X11690924Y4649316D01*
X11684000Y4623476D01*
Y4596724D01*
X11690924Y4570884D01*
X11704300Y4547716D01*
X11723216Y4528800D01*
X11746384Y4515424D01*
X11772224Y4508500D01*
X11798976D01*
X11824816Y4515424D01*
X11847984Y4528800D01*
X11866900Y4547716D01*
X11880276Y4570884D01*
X11887200Y4596724D01*
Y4623476D01*
X11880276Y4649316D01*
X11866900Y4672484D01*
X11847984Y4691400D01*
X11824816Y4704776D01*
X11798976Y4711700D01*
D02*
G37*
G36*
X4255176D02*
X4228424D01*
X4202584Y4704776D01*
X4179416Y4691400D01*
X4160500Y4672484D01*
X4147124Y4649316D01*
X4140200Y4623476D01*
Y4596724D01*
X4147124Y4570884D01*
X4160500Y4547716D01*
X4179416Y4528800D01*
X4202584Y4515424D01*
X4228424Y4508500D01*
X4255176D01*
X4281016Y4515424D01*
X4304184Y4528800D01*
X4323100Y4547716D01*
X4336476Y4570884D01*
X4343400Y4596724D01*
Y4623476D01*
X4336476Y4649316D01*
X4323100Y4672484D01*
X4304184Y4691400D01*
X4281016Y4704776D01*
X4255176Y4711700D01*
D02*
G37*
G36*
X1992036D02*
X1965284D01*
X1939444Y4704776D01*
X1916276Y4691400D01*
X1897360Y4672484D01*
X1883984Y4649316D01*
X1877060Y4623476D01*
Y4596724D01*
X1883984Y4570884D01*
X1897360Y4547716D01*
X1916276Y4528800D01*
X1939444Y4515424D01*
X1965284Y4508500D01*
X1992036D01*
X2017876Y4515424D01*
X2041044Y4528800D01*
X2059960Y4547716D01*
X2073336Y4570884D01*
X2080260Y4596724D01*
Y4623476D01*
X2073336Y4649316D01*
X2059960Y4672484D01*
X2041044Y4691400D01*
X2017876Y4704776D01*
X1992036Y4711700D01*
D02*
G37*
G36*
X4255176Y4457700D02*
X4228424D01*
X4202584Y4450776D01*
X4179416Y4437400D01*
X4160500Y4418484D01*
X4147124Y4395316D01*
X4140200Y4369476D01*
Y4342724D01*
X4147124Y4316884D01*
X4160500Y4293716D01*
X4179416Y4274800D01*
X4202584Y4261424D01*
X4228424Y4254500D01*
X4255176D01*
X4281016Y4261424D01*
X4304184Y4274800D01*
X4323100Y4293716D01*
X4336476Y4316884D01*
X4343400Y4342724D01*
Y4369476D01*
X4336476Y4395316D01*
X4323100Y4418484D01*
X4304184Y4437400D01*
X4281016Y4450776D01*
X4255176Y4457700D01*
D02*
G37*
G36*
X1992036D02*
X1965284D01*
X1939444Y4450776D01*
X1916276Y4437400D01*
X1897360Y4418484D01*
X1883984Y4395316D01*
X1877060Y4369476D01*
Y4342724D01*
X1883984Y4316884D01*
X1897360Y4293716D01*
X1916276Y4274800D01*
X1939444Y4261424D01*
X1965284Y4254500D01*
X1992036D01*
X2017876Y4261424D01*
X2041044Y4274800D01*
X2059960Y4293716D01*
X2073336Y4316884D01*
X2080260Y4342724D01*
Y4369476D01*
X2073336Y4395316D01*
X2059960Y4418484D01*
X2041044Y4437400D01*
X2017876Y4450776D01*
X1992036Y4457700D01*
D02*
G37*
G36*
X8015200Y4427800D02*
X7834400D01*
Y4247000D01*
X8015200D01*
Y4427800D01*
D02*
G37*
G36*
X4255176Y4203700D02*
X4228424D01*
X4202584Y4196776D01*
X4179416Y4183400D01*
X4160500Y4164484D01*
X4147124Y4141316D01*
X4140200Y4115476D01*
Y4088724D01*
X4147124Y4062884D01*
X4160500Y4039716D01*
X4179416Y4020800D01*
X4202584Y4007424D01*
X4228424Y4000500D01*
X4255176D01*
X4281016Y4007424D01*
X4304184Y4020800D01*
X4323100Y4039716D01*
X4336476Y4062884D01*
X4343400Y4088724D01*
Y4115476D01*
X4336476Y4141316D01*
X4323100Y4164484D01*
X4304184Y4183400D01*
X4281016Y4196776D01*
X4255176Y4203700D01*
D02*
G37*
G36*
X1992036D02*
X1965284D01*
X1939444Y4196776D01*
X1916276Y4183400D01*
X1897360Y4164484D01*
X1883984Y4141316D01*
X1877060Y4115476D01*
Y4088724D01*
X1883984Y4062884D01*
X1897360Y4039716D01*
X1916276Y4020800D01*
X1939444Y4007424D01*
X1965284Y4000500D01*
X1992036D01*
X2017876Y4007424D01*
X2041044Y4020800D01*
X2059960Y4039716D01*
X2073336Y4062884D01*
X2080260Y4088724D01*
Y4115476D01*
X2073336Y4141316D01*
X2059960Y4164484D01*
X2041044Y4183400D01*
X2017876Y4196776D01*
X1992036Y4203700D01*
D02*
G37*
G36*
X4255176Y3949700D02*
X4228424D01*
X4202584Y3942776D01*
X4179416Y3929400D01*
X4160500Y3910484D01*
X4147124Y3887316D01*
X4140200Y3861476D01*
Y3834724D01*
X4147124Y3808884D01*
X4160500Y3785716D01*
X4179416Y3766800D01*
X4202584Y3753424D01*
X4228424Y3746500D01*
X4255176D01*
X4281016Y3753424D01*
X4304184Y3766800D01*
X4323100Y3785716D01*
X4336476Y3808884D01*
X4343400Y3834724D01*
Y3861476D01*
X4336476Y3887316D01*
X4323100Y3910484D01*
X4304184Y3929400D01*
X4281016Y3942776D01*
X4255176Y3949700D01*
D02*
G37*
G36*
X1992036D02*
X1965284D01*
X1939444Y3942776D01*
X1916276Y3929400D01*
X1897360Y3910484D01*
X1883984Y3887316D01*
X1877060Y3861476D01*
Y3834724D01*
X1883984Y3808884D01*
X1897360Y3785716D01*
X1916276Y3766800D01*
X1939444Y3753424D01*
X1965284Y3746500D01*
X1992036D01*
X2017876Y3753424D01*
X2041044Y3766800D01*
X2059960Y3785716D01*
X2073336Y3808884D01*
X2080260Y3834724D01*
Y3861476D01*
X2073336Y3887316D01*
X2059960Y3910484D01*
X2041044Y3929400D01*
X2017876Y3942776D01*
X1992036Y3949700D01*
D02*
G37*
G36*
X7937500Y3677586D02*
Y3600100D01*
X8014986D01*
X8009039Y3622293D01*
X7997138Y3642907D01*
X7980307Y3659738D01*
X7959693Y3671639D01*
X7937500Y3677586D01*
D02*
G37*
G36*
X7912100D02*
X7889907Y3671639D01*
X7869293Y3659738D01*
X7852462Y3642907D01*
X7840561Y3622293D01*
X7834614Y3600100D01*
X7912100D01*
Y3677586D01*
D02*
G37*
G36*
X8014986Y3574700D02*
X7937500D01*
Y3497214D01*
X7959693Y3503161D01*
X7980307Y3515062D01*
X7997138Y3531893D01*
X8009039Y3552507D01*
X8014986Y3574700D01*
D02*
G37*
G36*
X7912100D02*
X7834614D01*
X7840561Y3552507D01*
X7852462Y3531893D01*
X7869293Y3515062D01*
X7889907Y3503161D01*
X7912100Y3497214D01*
Y3574700D01*
D02*
G37*
G36*
X4255176Y3695700D02*
X4228424D01*
X4202584Y3688776D01*
X4179416Y3675400D01*
X4160500Y3656484D01*
X4147124Y3633316D01*
X4140200Y3607476D01*
Y3580724D01*
X4147124Y3554884D01*
X4160500Y3531716D01*
X4179416Y3512800D01*
X4202584Y3499424D01*
X4228424Y3492500D01*
X4255176D01*
X4281016Y3499424D01*
X4304184Y3512800D01*
X4323100Y3531716D01*
X4336476Y3554884D01*
X4343400Y3580724D01*
Y3607476D01*
X4336476Y3633316D01*
X4323100Y3656484D01*
X4304184Y3675400D01*
X4281016Y3688776D01*
X4255176Y3695700D01*
D02*
G37*
G36*
X1992036D02*
X1965284D01*
X1939444Y3688776D01*
X1916276Y3675400D01*
X1897360Y3656484D01*
X1883984Y3633316D01*
X1877060Y3607476D01*
Y3580724D01*
X1883984Y3554884D01*
X1897360Y3531716D01*
X1916276Y3512800D01*
X1939444Y3499424D01*
X1965284Y3492500D01*
X1992036D01*
X2017876Y3499424D01*
X2041044Y3512800D01*
X2059960Y3531716D01*
X2073336Y3554884D01*
X2080260Y3580724D01*
Y3607476D01*
X2073336Y3633316D01*
X2059960Y3656484D01*
X2041044Y3675400D01*
X2017876Y3688776D01*
X1992036Y3695700D01*
D02*
G37*
G36*
X4255176Y3441700D02*
X4228424D01*
X4202584Y3434776D01*
X4179416Y3421400D01*
X4160500Y3402484D01*
X4147124Y3379316D01*
X4140200Y3353476D01*
Y3326724D01*
X4147124Y3300884D01*
X4160500Y3277716D01*
X4179416Y3258800D01*
X4202584Y3245424D01*
X4228424Y3238500D01*
X4255176D01*
X4281016Y3245424D01*
X4304184Y3258800D01*
X4323100Y3277716D01*
X4336476Y3300884D01*
X4343400Y3326724D01*
Y3353476D01*
X4336476Y3379316D01*
X4323100Y3402484D01*
X4304184Y3421400D01*
X4281016Y3434776D01*
X4255176Y3441700D01*
D02*
G37*
G36*
X1992036D02*
X1965284D01*
X1939444Y3434776D01*
X1916276Y3421400D01*
X1897360Y3402484D01*
X1883984Y3379316D01*
X1877060Y3353476D01*
Y3326724D01*
X1883984Y3300884D01*
X1897360Y3277716D01*
X1916276Y3258800D01*
X1939444Y3245424D01*
X1965284Y3238500D01*
X1992036D01*
X2017876Y3245424D01*
X2041044Y3258800D01*
X2059960Y3277716D01*
X2073336Y3300884D01*
X2080260Y3326724D01*
Y3353476D01*
X2073336Y3379316D01*
X2059960Y3402484D01*
X2041044Y3421400D01*
X2017876Y3434776D01*
X1992036Y3441700D01*
D02*
G37*
G36*
X4255176Y3187700D02*
X4228424D01*
X4202584Y3180776D01*
X4179416Y3167400D01*
X4160500Y3148484D01*
X4147124Y3125316D01*
X4140200Y3099476D01*
Y3072724D01*
X4147124Y3046884D01*
X4160500Y3023716D01*
X4179416Y3004800D01*
X4202584Y2991424D01*
X4228424Y2984500D01*
X4255176D01*
X4281016Y2991424D01*
X4304184Y3004800D01*
X4323100Y3023716D01*
X4336476Y3046884D01*
X4343400Y3072724D01*
Y3099476D01*
X4336476Y3125316D01*
X4323100Y3148484D01*
X4304184Y3167400D01*
X4281016Y3180776D01*
X4255176Y3187700D01*
D02*
G37*
G36*
X1992036D02*
X1965284D01*
X1939444Y3180776D01*
X1916276Y3167400D01*
X1897360Y3148484D01*
X1883984Y3125316D01*
X1877060Y3099476D01*
Y3072724D01*
X1883984Y3046884D01*
X1897360Y3023716D01*
X1916276Y3004800D01*
X1939444Y2991424D01*
X1965284Y2984500D01*
X1992036D01*
X2017876Y2991424D01*
X2041044Y3004800D01*
X2059960Y3023716D01*
X2073336Y3046884D01*
X2080260Y3072724D01*
Y3099476D01*
X2073336Y3125316D01*
X2059960Y3148484D01*
X2041044Y3167400D01*
X2017876Y3180776D01*
X1992036Y3187700D01*
D02*
G37*
G36*
X4255176Y2933700D02*
X4228424D01*
X4202584Y2926776D01*
X4179416Y2913400D01*
X4160500Y2894484D01*
X4147124Y2871316D01*
X4140200Y2845476D01*
Y2818724D01*
X4147124Y2792884D01*
X4160500Y2769716D01*
X4179416Y2750800D01*
X4202584Y2737424D01*
X4228424Y2730500D01*
X4255176D01*
X4281016Y2737424D01*
X4304184Y2750800D01*
X4323100Y2769716D01*
X4336476Y2792884D01*
X4343400Y2818724D01*
Y2845476D01*
X4336476Y2871316D01*
X4323100Y2894484D01*
X4304184Y2913400D01*
X4281016Y2926776D01*
X4255176Y2933700D01*
D02*
G37*
G36*
X1992036D02*
X1965284D01*
X1939444Y2926776D01*
X1916276Y2913400D01*
X1897360Y2894484D01*
X1883984Y2871316D01*
X1877060Y2845476D01*
Y2818724D01*
X1883984Y2792884D01*
X1897360Y2769716D01*
X1916276Y2750800D01*
X1939444Y2737424D01*
X1965284Y2730500D01*
X1992036D01*
X2017876Y2737424D01*
X2041044Y2750800D01*
X2059960Y2769716D01*
X2073336Y2792884D01*
X2080260Y2818724D01*
Y2845476D01*
X2073336Y2871316D01*
X2059960Y2894484D01*
X2041044Y2913400D01*
X2017876Y2926776D01*
X1992036Y2933700D01*
D02*
G37*
G36*
X1281704Y2768600D02*
X1258296D01*
X1235686Y2762542D01*
X1215414Y2750838D01*
X1198862Y2734286D01*
X1187158Y2714014D01*
X1181100Y2691404D01*
Y2667996D01*
X1187158Y2645386D01*
X1198862Y2625114D01*
X1215414Y2608562D01*
X1235686Y2596858D01*
X1258296Y2590800D01*
X1281704D01*
X1304314Y2596858D01*
X1324586Y2608562D01*
X1341138Y2625114D01*
X1350225Y2640853D01*
X1580913D01*
X1591741Y2622099D01*
X1608293Y2605547D01*
X1628565Y2593843D01*
X1651175Y2587785D01*
X1674583D01*
X1697193Y2593843D01*
X1717465Y2605547D01*
X1734017Y2622099D01*
X1745720Y2642370D01*
X1751779Y2664981D01*
Y2688388D01*
X1745720Y2710999D01*
X1734017Y2731270D01*
X1717465Y2747822D01*
X1697193Y2759526D01*
X1674583Y2765585D01*
X1651175D01*
X1628565Y2759526D01*
X1608293Y2747822D01*
X1591741Y2731270D01*
X1584395Y2718547D01*
X1350225D01*
X1341138Y2734286D01*
X1324586Y2750838D01*
X1304314Y2762542D01*
X1281704Y2768600D01*
D02*
G37*
G36*
X4255176Y2679700D02*
X4228424D01*
X4202584Y2672776D01*
X4179416Y2659400D01*
X4160500Y2640484D01*
X4147124Y2617316D01*
X4140200Y2591476D01*
Y2564724D01*
X4147124Y2538884D01*
X4160500Y2515716D01*
X4179416Y2496800D01*
X4202584Y2483424D01*
X4228424Y2476500D01*
X4255176D01*
X4281016Y2483424D01*
X4304184Y2496800D01*
X4323100Y2515716D01*
X4336476Y2538884D01*
X4343400Y2564724D01*
Y2591476D01*
X4336476Y2617316D01*
X4323100Y2640484D01*
X4304184Y2659400D01*
X4281016Y2672776D01*
X4255176Y2679700D01*
D02*
G37*
G36*
X1992036D02*
X1965284D01*
X1939444Y2672776D01*
X1916276Y2659400D01*
X1897360Y2640484D01*
X1883984Y2617316D01*
X1877060Y2591476D01*
Y2564724D01*
X1883984Y2538884D01*
X1897360Y2515716D01*
X1916276Y2496800D01*
X1939444Y2483424D01*
X1965284Y2476500D01*
X1992036D01*
X2017876Y2483424D01*
X2041044Y2496800D01*
X2059960Y2515716D01*
X2073336Y2538884D01*
X2080260Y2564724D01*
Y2591476D01*
X2073336Y2617316D01*
X2059960Y2640484D01*
X2041044Y2659400D01*
X2017876Y2672776D01*
X1992036Y2679700D01*
D02*
G37*
G36*
X10210800Y2107462D02*
Y2024800D01*
X10293462D01*
X10286998Y2048923D01*
X10274439Y2070677D01*
X10256677Y2088439D01*
X10234923Y2100999D01*
X10210800Y2107462D01*
D02*
G37*
G36*
X12153900D02*
Y2024800D01*
X12236562D01*
X12230098Y2048923D01*
X12217539Y2070677D01*
X12199777Y2088439D01*
X12178023Y2100999D01*
X12153900Y2107462D01*
D02*
G37*
G36*
X10185400D02*
X10161277Y2100999D01*
X10139523Y2088439D01*
X10121761Y2070677D01*
X10109202Y2048923D01*
X10102738Y2024800D01*
X10185400D01*
Y2107462D01*
D02*
G37*
G36*
X12128500D02*
X12104377Y2100999D01*
X12082623Y2088439D01*
X12064861Y2070677D01*
X12052302Y2048923D01*
X12045838Y2024800D01*
X12128500D01*
Y2107462D01*
D02*
G37*
G36*
X7639738Y2105400D02*
X7632700D01*
Y1917700D01*
X7820400D01*
Y1924738D01*
X7812699Y1963455D01*
X7797592Y1999925D01*
X7775661Y2032748D01*
X7747748Y2060661D01*
X7714925Y2082592D01*
X7678455Y2097699D01*
X7639738Y2105400D01*
D02*
G37*
G36*
X7607300D02*
X7600262D01*
X7561545Y2097699D01*
X7525075Y2082592D01*
X7492252Y2060661D01*
X7464339Y2032748D01*
X7442408Y1999925D01*
X7427301Y1963455D01*
X7419600Y1924738D01*
Y1917700D01*
X7607300D01*
Y2105400D01*
D02*
G37*
G36*
X12236562Y1999400D02*
X12153900D01*
Y1916738D01*
X12178023Y1923202D01*
X12199777Y1935761D01*
X12217539Y1953523D01*
X12230098Y1975277D01*
X12236562Y1999400D01*
D02*
G37*
G36*
X10293462D02*
X10210800D01*
Y1916738D01*
X10234923Y1923202D01*
X10256677Y1935761D01*
X10274439Y1953523D01*
X10286998Y1975277D01*
X10293462Y1999400D01*
D02*
G37*
G36*
X12128500D02*
X12045838D01*
X12052302Y1975277D01*
X12064861Y1953523D01*
X12082623Y1935761D01*
X12104377Y1923202D01*
X12128500Y1916738D01*
Y1999400D01*
D02*
G37*
G36*
X10185400D02*
X10102738D01*
X10109202Y1975277D01*
X10121761Y1953523D01*
X10139523Y1935761D01*
X10161277Y1923202D01*
X10185400Y1916738D01*
Y1999400D01*
D02*
G37*
G36*
X11899760Y2107500D02*
X11874640D01*
X11850377Y2100999D01*
X11828623Y2088439D01*
X11810861Y2070677D01*
X11798302Y2048923D01*
X11791800Y2024660D01*
Y1999541D01*
X11798302Y1975277D01*
X11810861Y1953523D01*
X11828623Y1935761D01*
X11850377Y1923202D01*
X11874640Y1916700D01*
X11899760D01*
X11924023Y1923202D01*
X11945777Y1935761D01*
X11963539Y1953523D01*
X11976098Y1975277D01*
X11982600Y1999541D01*
Y2024660D01*
X11976098Y2048923D01*
X11963539Y2070677D01*
X11945777Y2088439D01*
X11924023Y2100999D01*
X11899760Y2107500D01*
D02*
G37*
G36*
X9956660D02*
X9931540D01*
X9907277Y2100999D01*
X9885523Y2088439D01*
X9867761Y2070677D01*
X9855202Y2048923D01*
X9848700Y2024660D01*
Y1999541D01*
X9855202Y1975277D01*
X9867761Y1953523D01*
X9885523Y1935761D01*
X9907277Y1923202D01*
X9931540Y1916700D01*
X9956660D01*
X9980923Y1923202D01*
X10002677Y1935761D01*
X10020439Y1953523D01*
X10032998Y1975277D01*
X10039500Y1999541D01*
Y2024660D01*
X10032998Y2048923D01*
X10020439Y2070677D01*
X10002677Y2088439D01*
X9980923Y2100999D01*
X9956660Y2107500D01*
D02*
G37*
G36*
X12303200Y1854683D02*
X12280900D01*
Y1770800D01*
X12364783D01*
Y1793100D01*
X12360095Y1816667D01*
X12346746Y1836646D01*
X12326767Y1849996D01*
X12303200Y1854683D01*
D02*
G37*
G36*
X12255500D02*
X12233200D01*
X12209633Y1849996D01*
X12189654Y1836646D01*
X12176305Y1816667D01*
X12171617Y1793100D01*
Y1770800D01*
X12255500D01*
Y1854683D01*
D02*
G37*
G36*
X7820400Y1892300D02*
X7632700D01*
Y1704600D01*
X7639738D01*
X7678455Y1712301D01*
X7714925Y1727408D01*
X7747748Y1749339D01*
X7775661Y1777252D01*
X7797592Y1810075D01*
X7812699Y1846545D01*
X7820400Y1885262D01*
Y1892300D01*
D02*
G37*
G36*
X7607300D02*
X7419600D01*
Y1885262D01*
X7427301Y1846545D01*
X7442408Y1810075D01*
X7464339Y1777252D01*
X7492252Y1749339D01*
X7525075Y1727408D01*
X7561545Y1712301D01*
X7600262Y1704600D01*
X7607300D01*
Y1892300D01*
D02*
G37*
G36*
X12026760Y1853500D02*
X12001640D01*
X11977377Y1846999D01*
X11955623Y1834439D01*
X11937861Y1816677D01*
X11925302Y1794923D01*
X11918800Y1770660D01*
Y1745541D01*
X11925302Y1721277D01*
X11937861Y1699523D01*
X11955623Y1681761D01*
X11977377Y1669202D01*
X12001640Y1662700D01*
X12026760D01*
X12051023Y1669202D01*
X12072777Y1681761D01*
X12090539Y1699523D01*
X12103098Y1721277D01*
X12109600Y1745541D01*
Y1770660D01*
X12103098Y1794923D01*
X12090539Y1816677D01*
X12072777Y1834439D01*
X12051023Y1846999D01*
X12026760Y1853500D01*
D02*
G37*
G36*
X10083660D02*
X10058540D01*
X10034277Y1846999D01*
X10012523Y1834439D01*
X9994761Y1816677D01*
X9982202Y1794923D01*
X9975700Y1770660D01*
Y1745541D01*
X9982202Y1721277D01*
X9994761Y1699523D01*
X10012523Y1681761D01*
X10034277Y1669202D01*
X10058540Y1662700D01*
X10083660D01*
X10107923Y1669202D01*
X10129677Y1681761D01*
X10147439Y1699523D01*
X10159998Y1721277D01*
X10166500Y1745541D01*
Y1770660D01*
X10159998Y1794923D01*
X10147439Y1816677D01*
X10129677Y1834439D01*
X10107923Y1846999D01*
X10083660Y1853500D01*
D02*
G37*
G36*
X12364783Y1745400D02*
X12280900D01*
Y1661517D01*
X12303200D01*
X12326767Y1666205D01*
X12346746Y1679554D01*
X12360095Y1699533D01*
X12364783Y1723100D01*
Y1745400D01*
D02*
G37*
G36*
X12255500D02*
X12171617D01*
Y1723100D01*
X12176305Y1699533D01*
X12189654Y1679554D01*
X12209633Y1666205D01*
X12233200Y1661517D01*
X12255500D01*
Y1745400D01*
D02*
G37*
G36*
X10360100Y1854683D02*
X10290100D01*
X10266533Y1849996D01*
X10246554Y1836646D01*
X10233205Y1816667D01*
X10228517Y1793100D01*
Y1723100D01*
X10233205Y1699533D01*
X10246554Y1679554D01*
X10266533Y1666205D01*
X10290100Y1661517D01*
X10360100D01*
X10383667Y1666205D01*
X10403646Y1679554D01*
X10416995Y1699533D01*
X10421683Y1723100D01*
Y1793100D01*
X10416995Y1816667D01*
X10403646Y1836646D01*
X10383667Y1849996D01*
X10360100Y1854683D01*
D02*
G37*
G36*
X12603960Y1308500D02*
X12567440D01*
X12531621Y1301375D01*
X12497880Y1287400D01*
X12467514Y1267110D01*
X12441690Y1241286D01*
X12421401Y1210920D01*
X12407425Y1177179D01*
X12400300Y1141360D01*
Y1104840D01*
X12407425Y1069021D01*
X12421401Y1035280D01*
X12441690Y1004914D01*
X12467514Y979090D01*
X12497880Y958801D01*
X12531621Y944825D01*
X12567440Y937700D01*
X12603960D01*
X12639779Y944825D01*
X12673520Y958801D01*
X12703886Y979090D01*
X12729710Y1004914D01*
X12749999Y1035280D01*
X12763975Y1069021D01*
X12771100Y1104840D01*
Y1141360D01*
X12763975Y1177179D01*
X12749999Y1210920D01*
X12729710Y1241286D01*
X12703886Y1267110D01*
X12673520Y1287400D01*
X12639779Y1301375D01*
X12603960Y1308500D01*
D02*
G37*
G36*
X11587960D02*
X11551440D01*
X11515621Y1301375D01*
X11481880Y1287400D01*
X11451514Y1267110D01*
X11425690Y1241286D01*
X11405401Y1210920D01*
X11391425Y1177179D01*
X11384300Y1141360D01*
Y1104840D01*
X11391425Y1069021D01*
X11405401Y1035280D01*
X11425690Y1004914D01*
X11451514Y979090D01*
X11481880Y958801D01*
X11515621Y944825D01*
X11551440Y937700D01*
X11587960D01*
X11623779Y944825D01*
X11657520Y958801D01*
X11687886Y979090D01*
X11713710Y1004914D01*
X11733999Y1035280D01*
X11747975Y1069021D01*
X11755100Y1104840D01*
Y1141360D01*
X11747975Y1177179D01*
X11733999Y1210920D01*
X11713710Y1241286D01*
X11687886Y1267110D01*
X11657520Y1287400D01*
X11623779Y1301375D01*
X11587960Y1308500D01*
D02*
G37*
G36*
X10660860D02*
X10624340D01*
X10588521Y1301375D01*
X10554780Y1287400D01*
X10524414Y1267110D01*
X10498590Y1241286D01*
X10478301Y1210920D01*
X10464325Y1177179D01*
X10457200Y1141360D01*
Y1104840D01*
X10464325Y1069021D01*
X10478301Y1035280D01*
X10498590Y1004914D01*
X10524414Y979090D01*
X10554780Y958801D01*
X10588521Y944825D01*
X10624340Y937700D01*
X10660860D01*
X10696679Y944825D01*
X10730420Y958801D01*
X10760786Y979090D01*
X10786610Y1004914D01*
X10806899Y1035280D01*
X10820875Y1069021D01*
X10828000Y1104840D01*
Y1141360D01*
X10820875Y1177179D01*
X10806899Y1210920D01*
X10786610Y1241286D01*
X10760786Y1267110D01*
X10730420Y1287400D01*
X10696679Y1301375D01*
X10660860Y1308500D01*
D02*
G37*
G36*
X9644860D02*
X9608340D01*
X9572521Y1301375D01*
X9538780Y1287400D01*
X9508414Y1267110D01*
X9482590Y1241286D01*
X9462301Y1210920D01*
X9448325Y1177179D01*
X9441200Y1141360D01*
Y1104840D01*
X9448325Y1069021D01*
X9462301Y1035280D01*
X9482590Y1004914D01*
X9508414Y979090D01*
X9538780Y958801D01*
X9572521Y944825D01*
X9608340Y937700D01*
X9644860D01*
X9680679Y944825D01*
X9714420Y958801D01*
X9744786Y979090D01*
X9770610Y1004914D01*
X9790899Y1035280D01*
X9804875Y1069021D01*
X9812000Y1104840D01*
Y1141360D01*
X9804875Y1177179D01*
X9790899Y1210920D01*
X9770610Y1241286D01*
X9744786Y1267110D01*
X9714420Y1287400D01*
X9680679Y1301375D01*
X9644860Y1308500D01*
D02*
G37*
G36*
X14840639Y606800D02*
X14833600D01*
Y419100D01*
X15021300D01*
Y426138D01*
X15013599Y464855D01*
X14998492Y501325D01*
X14976561Y534148D01*
X14948648Y562061D01*
X14915825Y583992D01*
X14879355Y599099D01*
X14840639Y606800D01*
D02*
G37*
G36*
X14808200D02*
X14801163D01*
X14762445Y599099D01*
X14725975Y583992D01*
X14693152Y562061D01*
X14665239Y534148D01*
X14643307Y501325D01*
X14628201Y464855D01*
X14620500Y426138D01*
Y419100D01*
X14808200D01*
Y606800D01*
D02*
G37*
G36*
X464238D02*
X457200D01*
Y419100D01*
X644900D01*
Y426138D01*
X637199Y464855D01*
X622092Y501325D01*
X600161Y534148D01*
X572248Y562061D01*
X539425Y583992D01*
X502955Y599099D01*
X464238Y606800D01*
D02*
G37*
G36*
X431800D02*
X424762D01*
X386045Y599099D01*
X349575Y583992D01*
X316752Y562061D01*
X288839Y534148D01*
X266908Y501325D01*
X251801Y464855D01*
X244100Y426138D01*
Y419100D01*
X431800D01*
Y606800D01*
D02*
G37*
G36*
X15021300Y393700D02*
X14833600D01*
Y206000D01*
X14840639D01*
X14879355Y213701D01*
X14915825Y228808D01*
X14948648Y250739D01*
X14976561Y278652D01*
X14998492Y311475D01*
X15013599Y347945D01*
X15021300Y386662D01*
Y393700D01*
D02*
G37*
G36*
X14808200D02*
X14620500D01*
Y386662D01*
X14628201Y347945D01*
X14643307Y311475D01*
X14665239Y278652D01*
X14693152Y250739D01*
X14725975Y228808D01*
X14762445Y213701D01*
X14801163Y206000D01*
X14808200D01*
Y393700D01*
D02*
G37*
G36*
X644900D02*
X457200D01*
Y206000D01*
X464238D01*
X502955Y213701D01*
X539425Y228808D01*
X572248Y250739D01*
X600161Y278652D01*
X622092Y311475D01*
X637199Y347945D01*
X644900Y386662D01*
Y393700D01*
D02*
G37*
G36*
X431800D02*
X244100D01*
Y386662D01*
X251801Y347945D01*
X266908Y311475D01*
X288839Y278652D01*
X316752Y250739D01*
X349575Y228808D01*
X386045Y213701D01*
X424762Y206000D01*
X431800D01*
Y393700D01*
D02*
G37*
%LPD*%
D10*
X5384800Y3340100D02*
X7378700Y5334000D01*
X4635500Y3340100D02*
X5384800D01*
X7378700Y5334000D02*
X9423400D01*
X9791700Y5702300D01*
X5511800Y4102100D02*
X6858000Y5448300D01*
X4635500Y4102100D02*
X5511800D01*
X5588000Y3848100D02*
X7188200Y5448300D01*
X4635500Y3848100D02*
X5588000D01*
X1659863Y2679700D02*
X1662879Y2676685D01*
X1270000Y2679700D02*
X1659863D01*
D12*
X7620000Y1905000D02*
D03*
Y8255000D02*
D03*
X444500Y406400D02*
D03*
X342900Y9804400D02*
D03*
X14820900D02*
D03*
Y406400D02*
D03*
D13*
X4241800Y6896100D02*
D03*
Y6642100D02*
D03*
Y6388100D02*
D03*
Y6134100D02*
D03*
Y5880100D02*
D03*
Y5626100D02*
D03*
Y5372100D02*
D03*
Y5118100D02*
D03*
Y4864100D02*
D03*
Y4610100D02*
D03*
Y4356100D02*
D03*
Y4102100D02*
D03*
Y3848100D02*
D03*
Y3594100D02*
D03*
Y3340100D02*
D03*
Y3086100D02*
D03*
Y2832100D02*
D03*
Y2578100D02*
D03*
X1978660Y4356100D02*
D03*
Y4610100D02*
D03*
Y4864100D02*
D03*
Y5118100D02*
D03*
Y5372100D02*
D03*
Y5626100D02*
D03*
Y5880100D02*
D03*
Y6134100D02*
D03*
Y6388100D02*
D03*
Y6642100D02*
D03*
Y6896100D02*
D03*
Y4102100D02*
D03*
Y3848100D02*
D03*
Y2578100D02*
D03*
Y3086100D02*
D03*
Y3340100D02*
D03*
Y3594100D02*
D03*
Y2832100D02*
D03*
X11239500Y8013700D02*
D03*
X11493500D02*
D03*
X11747500D02*
D03*
X12001500D02*
D03*
X12255500D02*
D03*
X12509500D02*
D03*
X12763500D02*
D03*
X2984500Y9093200D02*
D03*
X2730500D02*
D03*
X11785600Y4610100D02*
D03*
Y4864100D02*
D03*
Y5118100D02*
D03*
Y5372100D02*
D03*
Y5626100D02*
D03*
Y5880100D02*
D03*
D14*
X10325100Y1758100D02*
D03*
X12268200D02*
D03*
D15*
X10198100Y2012100D02*
D03*
X10071100Y1758100D02*
D03*
X9944100Y2012100D02*
D03*
X11887200D02*
D03*
X12014200Y1758100D02*
D03*
X12141200Y2012100D02*
D03*
D16*
X9626600Y1123100D02*
D03*
X10642600D02*
D03*
X12585700D02*
D03*
X11569700D02*
D03*
D17*
X10985500Y8013700D02*
D03*
D18*
X10071100Y6697600D02*
D03*
X8997950D02*
D03*
X7924800D02*
D03*
D19*
X10071100Y5697600D02*
D03*
X8997950D02*
D03*
X7924800D02*
D03*
D20*
Y3587400D02*
D03*
D21*
Y4337400D02*
D03*
D22*
X4635500Y3340100D02*
D03*
X9791700Y5702300D02*
D03*
X6858000Y5448300D02*
D03*
X4635500Y4102100D02*
D03*
X1662879Y2676685D02*
D03*
X1270000Y2679700D02*
D03*
X7188200Y5448300D02*
D03*
X4635500Y3848100D02*
D03*
%TF.MD5,ab80ef176a3caa0f91d34f287da97527*%
M02*
