%TF.GenerationSoftware,Altium Limited,Altium Designer,23.10.1 (27)*%
G04 Layer_Color=0*
%FSLAX45Y45*%
%MOMM*%
%TF.SameCoordinates,F6A67EC3-CF4D-4AC4-9858-863E4A550454*%
%TF.FilePolarity,Positive*%
%TF.FileFunction,Plated,1,2,PTH,Drill*%
%TF.Part,Single*%
G01*
G75*
%TA.AperFunction,OtherDrill,Pad Free-PTH6 (76.2mm,19.05mm)*%
%ADD34C,2.50000*%
%TA.AperFunction,OtherDrill,Pad Free-PTH5 (76.2mm,82.55mm)*%
%ADD35C,2.50000*%
%TA.AperFunction,ComponentDrill*%
%ADD36C,0.76200*%
%ADD37C,0.90000*%
%TA.AperFunction,OtherDrill,Pad Free-PTH1 (4.445mm,4.064mm)*%
%ADD38C,2.50000*%
%TA.AperFunction,OtherDrill,Pad Free-PTH2 (3.429mm,98.044mm)*%
%ADD39C,2.50000*%
%TA.AperFunction,OtherDrill,Pad Free-PTH3 (148.209mm,98.044mm)*%
%ADD40C,2.50000*%
%TA.AperFunction,OtherDrill,Pad Free-PTH4 (148.209mm,4.064mm)*%
%ADD41C,2.50000*%
%TA.AperFunction,ComponentDrill*%
%ADD42C,0.75000*%
%ADD43C,0.80000*%
%ADD44C,0.76200*%
%TA.AperFunction,ViaDrill,NotFilled*%
%ADD45C,0.71120*%
D34*
X7620000Y1905000D02*
D03*
D35*
Y8255000D02*
D03*
D36*
X4241800Y6896100D02*
D03*
Y6642100D02*
D03*
Y6388100D02*
D03*
Y6134100D02*
D03*
Y5880100D02*
D03*
Y5626100D02*
D03*
Y5372100D02*
D03*
Y5118100D02*
D03*
Y4864100D02*
D03*
Y4610100D02*
D03*
Y4356100D02*
D03*
Y4102100D02*
D03*
Y3848100D02*
D03*
Y3594100D02*
D03*
Y3340100D02*
D03*
Y3086100D02*
D03*
Y2832100D02*
D03*
Y2578100D02*
D03*
X1978660Y4356100D02*
D03*
Y4610100D02*
D03*
Y4864100D02*
D03*
Y5118100D02*
D03*
Y5372100D02*
D03*
Y5626100D02*
D03*
Y5880100D02*
D03*
Y6134100D02*
D03*
Y6388100D02*
D03*
Y6642100D02*
D03*
Y6896100D02*
D03*
Y4102100D02*
D03*
Y3848100D02*
D03*
Y2578100D02*
D03*
Y3086100D02*
D03*
Y3340100D02*
D03*
Y3594100D02*
D03*
Y2832100D02*
D03*
X10985500Y8013700D02*
D03*
X11239500D02*
D03*
X11493500D02*
D03*
X11747500D02*
D03*
X12001500D02*
D03*
X12255500D02*
D03*
X12509500D02*
D03*
X12763500D02*
D03*
X2984500Y9093200D02*
D03*
X2730500D02*
D03*
D37*
X10325100Y1758100D02*
D03*
X10198100Y2012100D02*
D03*
X10071100Y1758100D02*
D03*
X9944100Y2012100D02*
D03*
X11887200D02*
D03*
X12014200Y1758100D02*
D03*
X12141200Y2012100D02*
D03*
X12268200Y1758100D02*
D03*
D38*
X444500Y406400D02*
D03*
D39*
X342900Y9804400D02*
D03*
D40*
X14820900D02*
D03*
D41*
Y406400D02*
D03*
D42*
X10071100Y6697600D02*
D03*
Y5697600D02*
D03*
X8997950Y6697600D02*
D03*
Y5697600D02*
D03*
X7924800Y6697600D02*
D03*
Y5697600D02*
D03*
D43*
Y3587400D02*
D03*
Y4337400D02*
D03*
D44*
X11785600Y4610100D02*
D03*
Y4864100D02*
D03*
Y5118100D02*
D03*
Y5372100D02*
D03*
Y5626100D02*
D03*
Y5880100D02*
D03*
D45*
X4635500Y3340100D02*
D03*
X9791700Y5702300D02*
D03*
X6858000Y5448300D02*
D03*
X4635500Y4102100D02*
D03*
X1662879Y2676685D02*
D03*
X1270000Y2679700D02*
D03*
X7188200Y5448300D02*
D03*
X4635500Y3848100D02*
D03*
%TF.MD5,05d0f132b34423dc77daffa8dfeb16f8*%
M02*
