G04*
G04 #@! TF.GenerationSoftware,Altium Limited,Altium Designer,23.10.1 (27)*
G04*
G04 Layer_Color=16711935*
%FSLAX44Y44*%
%MOMM*%
G71*
G04*
G04 #@! TF.SameCoordinates,2E3EF511-91C1-4F0E-8D45-CE2B79DCFB35*
G04*
G04*
G04 #@! TF.FilePolarity,Negative*
G04*
G01*
G75*
%ADD12C,3.7032*%
%ADD13C,1.7272*%
G04:AMPARAMS|DCode=14|XSize=1.6032mm|YSize=1.6032mm|CornerRadius=0.4516mm|HoleSize=0mm|Usage=FLASHONLY|Rotation=180.000|XOffset=0mm|YOffset=0mm|HoleType=Round|Shape=RoundedRectangle|*
%AMROUNDEDRECTD14*
21,1,1.6032,0.7000,0,0,180.0*
21,1,0.7000,1.6032,0,0,180.0*
1,1,0.9032,-0.3500,0.3500*
1,1,0.9032,0.3500,0.3500*
1,1,0.9032,0.3500,-0.3500*
1,1,0.9032,-0.3500,-0.3500*
%
%ADD14ROUNDEDRECTD14*%
%ADD15C,1.6032*%
%ADD16C,3.4032*%
%ADD17R,1.7272X1.7272*%
%ADD18C,1.2500*%
%ADD19R,1.2500X1.2500*%
%ADD20C,1.3000*%
%ADD21R,1.3000X1.3000*%
%ADD22C,1.4732*%
D12*
X44450Y971550D02*
D03*
X762000Y190500D02*
D03*
Y825500D02*
D03*
X44450Y44450D02*
D03*
X1479550Y971550D02*
D03*
Y44450D02*
D03*
D13*
X424180Y689610D02*
D03*
Y664210D02*
D03*
Y638810D02*
D03*
Y613410D02*
D03*
Y588010D02*
D03*
Y562610D02*
D03*
Y537210D02*
D03*
Y511810D02*
D03*
Y486410D02*
D03*
Y461010D02*
D03*
Y435610D02*
D03*
Y410210D02*
D03*
Y384810D02*
D03*
Y359410D02*
D03*
Y334010D02*
D03*
Y308610D02*
D03*
Y283210D02*
D03*
Y257810D02*
D03*
X197866Y435610D02*
D03*
Y461010D02*
D03*
Y486410D02*
D03*
Y511810D02*
D03*
Y537210D02*
D03*
Y562610D02*
D03*
Y588010D02*
D03*
Y613410D02*
D03*
Y638810D02*
D03*
Y664210D02*
D03*
Y689610D02*
D03*
Y410210D02*
D03*
Y384810D02*
D03*
Y257810D02*
D03*
Y308610D02*
D03*
Y334010D02*
D03*
Y359410D02*
D03*
Y283210D02*
D03*
X1123950Y801370D02*
D03*
X1149350D02*
D03*
X1174750D02*
D03*
X1200150D02*
D03*
X1225550D02*
D03*
X1250950D02*
D03*
X1276350D02*
D03*
X298450Y909320D02*
D03*
X273050D02*
D03*
X1178560Y461010D02*
D03*
Y486410D02*
D03*
Y511810D02*
D03*
Y537210D02*
D03*
Y562610D02*
D03*
Y588010D02*
D03*
D14*
X1032510Y175810D02*
D03*
X1226820D02*
D03*
D15*
X1019810Y201210D02*
D03*
X1007110Y175810D02*
D03*
X994410Y201210D02*
D03*
X1188720D02*
D03*
X1201420Y175810D02*
D03*
X1214120Y201210D02*
D03*
D16*
X962660Y112310D02*
D03*
X1064260D02*
D03*
X1258570D02*
D03*
X1156970D02*
D03*
D17*
X1098550Y801370D02*
D03*
D18*
X1007110Y669760D02*
D03*
X899795D02*
D03*
X792480D02*
D03*
D19*
X1007110Y569760D02*
D03*
X899795D02*
D03*
X792480D02*
D03*
D20*
Y358740D02*
D03*
D21*
Y433740D02*
D03*
D22*
X463550Y334010D02*
D03*
X979170Y570230D02*
D03*
X685800Y544830D02*
D03*
X463550Y410210D02*
D03*
X166288Y267668D02*
D03*
X127000Y267970D02*
D03*
X718820Y544830D02*
D03*
X463550Y384810D02*
D03*
M02*
