M48
;Layer_Color=9474304
;FILE_FORMAT=2:4
INCH,TZ
;TYPE=PLATED
T01F00S00C0.0280
T02F00S00C0.0295
T03F00S00C0.0300
T04F00S00C0.0315
T05F00S00C0.0354
T06F00S00C0.0984
;TYPE=NON_PLATED
T07F00S00C0.1260
%
T01
X6547Y10538
X18250Y13150
Y15150
Y16150
X5000Y10550
X27000Y21450
X28300
X38550Y22450
T02
X31200Y22431
Y26369
X35425
Y22431
X39650
Y26369
T03
X46400Y18150
Y19150
Y20150
Y21150
X16700
Y20150
Y19150
Y18150
Y17150
Y16150
Y15150
Y14150
Y13150
Y12150
Y11150
Y10150
X7790
Y11150
Y12150
Y13150
Y14150
Y15150
Y16150
Y17150
Y18150
Y19150
Y20150
Y21150
Y22150
Y23150
Y24150
Y25150
Y26150
Y27150
X16700
Y26150
Y25150
Y24150
Y23150
Y22150
X11750Y35800
X10750
X43250Y31550
X44250
X45250
X46250
X47250
X48250
X49250
X50250
X46400Y23150
Y22150
T04
X31200Y14124
Y17076
T05
X39650Y6922
X40650
X40150Y7922
X39150
X46800
X47800
X47300Y6922
X48300
T06
X1750Y1750
X58250
X30000Y7500
Y32500
X58250Y38250
X1750
T07
X37900Y4422
X41900
X45550
X49550
M30
