%TF.GenerationSoftware,Altium Limited,Altium Designer,23.10.1 (27)*%
G04 Layer_Color=65535*
%FSLAX45Y45*%
%MOMM*%
%TF.SameCoordinates,F6A67EC3-CF4D-4AC4-9858-863E4A550454*%
%TF.FilePolarity,Positive*%
%TF.FileFunction,Legend,Top*%
%TF.Part,Single*%
G01*
G75*
%TA.AperFunction,NonConductor*%
%ADD23C,0.25400*%
%ADD24C,0.20000*%
D23*
X10731500Y7759700D02*
Y9791700D01*
X13017500Y7759700D02*
Y9791700D01*
X10731500D02*
X13017500D01*
X10731500Y7759700D02*
X13017500D01*
X3238500Y8585200D02*
Y9347200D01*
X2476500Y8585200D02*
Y9347200D01*
Y8585200D02*
X3238500D01*
X2476500Y9347200D02*
X3238500D01*
X11531600Y6134100D02*
X12801601D01*
X11531600Y4356100D02*
X12801601D01*
Y6134100D01*
X11531600Y4356100D02*
Y6134100D01*
X1828800Y7531051D02*
Y7404092D01*
X1854192Y7378700D01*
X1904975D01*
X1930367Y7404092D01*
Y7531051D01*
X1981151Y7378700D02*
X2031934D01*
X2006543D01*
Y7531051D01*
X1981151Y7505659D01*
X10744200Y9880600D02*
Y10032951D01*
X10820375D01*
X10845767Y10007559D01*
Y9956775D01*
X10820375Y9931383D01*
X10744200D01*
X10998118Y9880600D02*
X10896551D01*
X10998118Y9982167D01*
Y10007559D01*
X10972726Y10032951D01*
X10921943D01*
X10896551Y10007559D01*
X2489200Y9436100D02*
Y9588451D01*
X2565375D01*
X2590767Y9563059D01*
Y9512275D01*
X2565375Y9486883D01*
X2489200D01*
X2641551Y9563059D02*
X2666943Y9588451D01*
X2717726D01*
X2743118Y9563059D01*
Y9537667D01*
X2717726Y9512275D01*
X2692334D01*
X2717726D01*
X2743118Y9486883D01*
Y9461492D01*
X2717726Y9436100D01*
X2666943D01*
X2641551Y9461492D01*
X9951720Y6855460D02*
Y7007811D01*
X10027895D01*
X10053287Y6982419D01*
Y6931635D01*
X10027895Y6906243D01*
X9951720D01*
X10002503D02*
X10053287Y6855460D01*
X10104071Y6982419D02*
X10129463Y7007811D01*
X10180246D01*
X10205638Y6982419D01*
Y6957027D01*
X10180246Y6931635D01*
X10154854D01*
X10180246D01*
X10205638Y6906243D01*
Y6880852D01*
X10180246Y6855460D01*
X10129463D01*
X10104071Y6880852D01*
X8878570Y6855460D02*
Y7007811D01*
X8954745D01*
X8980137Y6982419D01*
Y6931635D01*
X8954745Y6906243D01*
X8878570D01*
X8929353D02*
X8980137Y6855460D01*
X9132488D02*
X9030921D01*
X9132488Y6957027D01*
Y6982419D01*
X9107096Y7007811D01*
X9056313D01*
X9030921Y6982419D01*
X7805420Y6855460D02*
Y7007811D01*
X7881595D01*
X7906987Y6982419D01*
Y6931635D01*
X7881595Y6906243D01*
X7805420D01*
X7856203D02*
X7906987Y6855460D01*
X7957771D02*
X8008554D01*
X7983163D01*
Y7007811D01*
X7957771Y6982419D01*
X11544300Y6223000D02*
Y6375351D01*
X11620475D01*
X11645867Y6349959D01*
Y6299175D01*
X11620475Y6273783D01*
X11544300D01*
X11696651Y6223000D02*
X11747434D01*
X11722043D01*
Y6375351D01*
X11696651Y6349959D01*
X7782527Y4985979D02*
X7757135Y5011371D01*
X7706352D01*
X7680960Y4985979D01*
Y4884412D01*
X7706352Y4859020D01*
X7757135D01*
X7782527Y4884412D01*
X7833311Y4859020D02*
X7884094D01*
X7858703D01*
Y5011371D01*
X7833311Y4985979D01*
D24*
X10071100Y6522600D02*
Y6595100D01*
Y5800100D02*
Y5872600D01*
X9946100D02*
X10196100D01*
Y6522600D01*
X9946100D02*
X10196100D01*
X9946100Y5872600D02*
Y6522600D01*
X8997950D02*
Y6595100D01*
Y5800100D02*
Y5872600D01*
X8872950D02*
X9122950D01*
Y6522600D01*
X8872950D02*
X9122950D01*
X8872950Y5872600D02*
Y6522600D01*
X7924800D02*
Y6595100D01*
Y5800100D02*
Y5872600D01*
X7799800D02*
X8049800D01*
Y6522600D01*
X7799800D02*
X8049800D01*
X7799800Y5872600D02*
Y6522600D01*
X7674800Y4762400D02*
X8174800D01*
X7674800Y3162400D02*
Y4762400D01*
Y3162400D02*
X8174800D01*
Y4762400D01*
%TF.MD5,ca04db7620a3ab4692c82974db4258e8*%
M02*
