%TF.GenerationSoftware,Altium Limited,Altium Designer,23.10.1 (27)*%
G04 Layer_Color=8388736*
%FSLAX45Y45*%
%MOMM*%
%TF.SameCoordinates,F6A67EC3-CF4D-4AC4-9858-863E4A550454*%
%TF.FilePolarity,Negative*%
%TF.FileFunction,Soldermask,Top*%
%TF.Part,Single*%
G01*
G75*
%TA.AperFunction,ComponentPad*%
%ADD18C,1.25000*%
%ADD19R,1.25000X1.25000*%
%ADD20C,1.30000*%
%ADD21R,1.30000X1.30000*%
%TA.AperFunction,ViaPad*%
%ADD25C,3.65000*%
%TA.AperFunction,ComponentPad*%
%ADD26C,1.67400*%
G04:AMPARAMS|DCode=27|XSize=1.55mm|YSize=1.55mm|CornerRadius=0.425mm|HoleSize=0mm|Usage=FLASHONLY|Rotation=180.000|XOffset=0mm|YOffset=0mm|HoleType=Round|Shape=RoundedRectangle|*
%AMROUNDEDRECTD27*
21,1,1.55000,0.70000,0,0,180.0*
21,1,0.70000,1.55000,0,0,180.0*
1,1,0.85000,-0.35000,0.35000*
1,1,0.85000,0.35000,0.35000*
1,1,0.85000,0.35000,-0.35000*
1,1,0.85000,-0.35000,-0.35000*
%
%ADD27ROUNDEDRECTD27*%
%ADD28C,1.55000*%
%ADD29C,3.35000*%
%ADD30R,1.67400X1.67400*%
%TA.AperFunction,ViaPad*%
%ADD31C,1.42000*%
D18*
X10071100Y6697600D02*
D03*
X8997950D02*
D03*
X7924800D02*
D03*
D19*
X10071100Y5697600D02*
D03*
X8997950D02*
D03*
X7924800D02*
D03*
D20*
Y3587400D02*
D03*
D21*
Y4337400D02*
D03*
D25*
X7620000Y1905000D02*
D03*
Y8255000D02*
D03*
X444500Y406400D02*
D03*
X342900Y9804400D02*
D03*
X14820900D02*
D03*
Y406400D02*
D03*
D26*
X4241800Y6896100D02*
D03*
Y6642100D02*
D03*
Y6388100D02*
D03*
Y6134100D02*
D03*
Y5880100D02*
D03*
Y5626100D02*
D03*
Y5372100D02*
D03*
Y5118100D02*
D03*
Y4864100D02*
D03*
Y4610100D02*
D03*
Y4356100D02*
D03*
Y4102100D02*
D03*
Y3848100D02*
D03*
Y3594100D02*
D03*
Y3340100D02*
D03*
Y3086100D02*
D03*
Y2832100D02*
D03*
Y2578100D02*
D03*
X1978660Y4356100D02*
D03*
Y4610100D02*
D03*
Y4864100D02*
D03*
Y5118100D02*
D03*
Y5372100D02*
D03*
Y5626100D02*
D03*
Y5880100D02*
D03*
Y6134100D02*
D03*
Y6388100D02*
D03*
Y6642100D02*
D03*
Y6896100D02*
D03*
Y4102100D02*
D03*
Y3848100D02*
D03*
Y2578100D02*
D03*
Y3086100D02*
D03*
Y3340100D02*
D03*
Y3594100D02*
D03*
Y2832100D02*
D03*
X11239500Y8013700D02*
D03*
X11493500D02*
D03*
X11747500D02*
D03*
X12001500D02*
D03*
X12255500D02*
D03*
X12509500D02*
D03*
X12763500D02*
D03*
X2984500Y9093200D02*
D03*
X2730500D02*
D03*
X11785600Y4610100D02*
D03*
Y4864100D02*
D03*
Y5118100D02*
D03*
Y5372100D02*
D03*
Y5626100D02*
D03*
Y5880100D02*
D03*
D27*
X10325100Y1758100D02*
D03*
X12268200D02*
D03*
D28*
X10198100Y2012100D02*
D03*
X10071100Y1758100D02*
D03*
X9944100Y2012100D02*
D03*
X11887200D02*
D03*
X12014200Y1758100D02*
D03*
X12141200Y2012100D02*
D03*
D29*
X9626600Y1123100D02*
D03*
X10642600D02*
D03*
X12585700D02*
D03*
X11569700D02*
D03*
D30*
X10985500Y8013700D02*
D03*
D31*
X4635500Y3340100D02*
D03*
X9791700Y5702300D02*
D03*
X6858000Y5448300D02*
D03*
X4635500Y4102100D02*
D03*
X1662879Y2676685D02*
D03*
X1270000Y2679700D02*
D03*
X7188200Y5448300D02*
D03*
X4635500Y3848100D02*
D03*
%TF.MD5,f924a8e69abe6851f795533729438dcf*%
M02*
