G04*
G04 #@! TF.GenerationSoftware,Altium Limited,Altium Designer,23.10.1 (27)*
G04*
G04 Layer_Physical_Order=2*
G04 Layer_Color=16711680*
%FSLAX44Y44*%
%MOMM*%
G71*
G04*
G04 #@! TF.SameCoordinates,2E3EF511-91C1-4F0E-8D45-CE2B79DCFB35*
G04*
G04*
G04 #@! TF.FilePolarity,Positive*
G04*
G01*
G75*
%ADD10C,0.2540*%
%ADD18C,1.2500*%
%ADD19R,1.2500X1.2500*%
%ADD20C,1.3000*%
%ADD21R,1.3000X1.3000*%
%ADD24C,3.5000*%
%ADD25C,1.5240*%
G04:AMPARAMS|DCode=26|XSize=1.4mm|YSize=1.4mm|CornerRadius=0.35mm|HoleSize=0mm|Usage=FLASHONLY|Rotation=180.000|XOffset=0mm|YOffset=0mm|HoleType=Round|Shape=RoundedRectangle|*
%AMROUNDEDRECTD26*
21,1,1.4000,0.7000,0,0,180.0*
21,1,0.7000,1.4000,0,0,180.0*
1,1,0.7000,-0.3500,0.3500*
1,1,0.7000,0.3500,0.3500*
1,1,0.7000,0.3500,-0.3500*
1,1,0.7000,-0.3500,-0.3500*
%
%ADD26ROUNDEDRECTD26*%
%ADD27C,1.4000*%
%ADD28C,3.2000*%
%ADD29R,1.5240X1.5240*%
%ADD30C,1.2700*%
G36*
X1511300Y12700D02*
X12700D01*
Y1003300D01*
X1511300D01*
Y12700D01*
D02*
G37*
%LPC*%
G36*
X1482090Y991477D02*
Y974090D01*
X1499477D01*
X1498820Y977395D01*
X1497309Y981042D01*
X1495116Y984325D01*
X1492325Y987116D01*
X1489043Y989309D01*
X1485396Y990820D01*
X1482090Y991477D01*
D02*
G37*
G36*
X1477010D02*
X1473705Y990820D01*
X1470058Y989309D01*
X1466775Y987116D01*
X1463984Y984325D01*
X1461791Y981042D01*
X1460280Y977395D01*
X1459623Y974090D01*
X1477010D01*
Y991477D01*
D02*
G37*
G36*
X46990D02*
Y974090D01*
X64377D01*
X63720Y977395D01*
X62209Y981042D01*
X60016Y984325D01*
X57225Y987116D01*
X53942Y989309D01*
X50296Y990820D01*
X46990Y991477D01*
D02*
G37*
G36*
X41910D02*
X38605Y990820D01*
X34957Y989309D01*
X31675Y987116D01*
X28884Y984325D01*
X26691Y981042D01*
X25180Y977395D01*
X24523Y974090D01*
X41910D01*
Y991477D01*
D02*
G37*
G36*
X1499477Y969010D02*
X1482090D01*
Y951623D01*
X1485396Y952280D01*
X1489043Y953791D01*
X1492325Y955984D01*
X1495116Y958775D01*
X1497309Y962057D01*
X1498820Y965704D01*
X1499477Y969010D01*
D02*
G37*
G36*
X1477010D02*
X1459623D01*
X1460280Y965704D01*
X1461791Y962057D01*
X1463984Y958775D01*
X1466775Y955984D01*
X1470058Y953791D01*
X1473705Y952280D01*
X1477010Y951623D01*
Y969010D01*
D02*
G37*
G36*
X64377D02*
X46990D01*
Y951623D01*
X50296Y952280D01*
X53942Y953791D01*
X57225Y955984D01*
X60016Y958775D01*
X62209Y962057D01*
X63720Y965704D01*
X64377Y969010D01*
D02*
G37*
G36*
X41910D02*
X24523D01*
X25180Y965704D01*
X26691Y962057D01*
X28884Y958775D01*
X31675Y955984D01*
X34957Y953791D01*
X38605Y952280D01*
X41910Y951623D01*
Y969010D01*
D02*
G37*
G36*
X275590Y919158D02*
Y911860D01*
X282888D01*
X282518Y913242D01*
X281180Y915558D01*
X279288Y917450D01*
X276972Y918788D01*
X275590Y919158D01*
D02*
G37*
G36*
X270510D02*
X269128Y918788D01*
X266812Y917450D01*
X264920Y915558D01*
X263582Y913242D01*
X263212Y911860D01*
X270510D01*
Y919158D01*
D02*
G37*
G36*
X299721Y918972D02*
X297179D01*
X294725Y918314D01*
X292523Y917044D01*
X290727Y915247D01*
X289456Y913046D01*
X288798Y910591D01*
Y908049D01*
X289456Y905594D01*
X290727Y903393D01*
X292523Y901597D01*
X294725Y900326D01*
X297179Y899668D01*
X299721D01*
X302176Y900326D01*
X304377Y901597D01*
X306173Y903393D01*
X307444Y905594D01*
X308102Y908049D01*
Y910591D01*
X307444Y913046D01*
X306173Y915247D01*
X304377Y917044D01*
X302176Y918314D01*
X299721Y918972D01*
D02*
G37*
G36*
X282888Y906780D02*
X275590D01*
Y899482D01*
X276972Y899852D01*
X279288Y901190D01*
X281180Y903082D01*
X282518Y905398D01*
X282888Y906780D01*
D02*
G37*
G36*
X270510D02*
X263212D01*
X263582Y905398D01*
X264920Y903082D01*
X266812Y901190D01*
X269128Y899852D01*
X270510Y899482D01*
Y906780D01*
D02*
G37*
G36*
X764540Y845427D02*
Y828040D01*
X781927D01*
X781270Y831346D01*
X779759Y834993D01*
X777566Y838275D01*
X774775Y841066D01*
X771492Y843259D01*
X767846Y844770D01*
X764540Y845427D01*
D02*
G37*
G36*
X759460D02*
X756154Y844770D01*
X752507Y843259D01*
X749225Y841066D01*
X746434Y838275D01*
X744241Y834993D01*
X742730Y831346D01*
X742073Y828040D01*
X759460D01*
Y845427D01*
D02*
G37*
G36*
X781927Y822960D02*
X764540D01*
Y805573D01*
X767846Y806230D01*
X771492Y807741D01*
X774775Y809934D01*
X777566Y812725D01*
X779759Y816008D01*
X781270Y819654D01*
X781927Y822960D01*
D02*
G37*
G36*
X759460D02*
X742073D01*
X742730Y819654D01*
X744241Y816008D01*
X746434Y812725D01*
X749225Y809934D01*
X752507Y807741D01*
X756154Y806230D01*
X759460Y805573D01*
Y822960D01*
D02*
G37*
G36*
X1126490Y811208D02*
Y803910D01*
X1133788D01*
X1133418Y805292D01*
X1132080Y807608D01*
X1130188Y809500D01*
X1127872Y810838D01*
X1126490Y811208D01*
D02*
G37*
G36*
X1121410D02*
X1120028Y810838D01*
X1117712Y809500D01*
X1115820Y807608D01*
X1114482Y805292D01*
X1114112Y803910D01*
X1121410D01*
Y811208D01*
D02*
G37*
G36*
X1277621Y811022D02*
X1275079D01*
X1272625Y810364D01*
X1270424Y809093D01*
X1268626Y807297D01*
X1267356Y805096D01*
X1266698Y802641D01*
Y800099D01*
X1267356Y797645D01*
X1268626Y795443D01*
X1270424Y793646D01*
X1272625Y792376D01*
X1275079Y791718D01*
X1277621D01*
X1280076Y792376D01*
X1282276Y793646D01*
X1284073Y795443D01*
X1285344Y797645D01*
X1286002Y800099D01*
Y802641D01*
X1285344Y805096D01*
X1284073Y807297D01*
X1282276Y809093D01*
X1280076Y810364D01*
X1277621Y811022D01*
D02*
G37*
G36*
X1252221D02*
X1249679D01*
X1247225Y810364D01*
X1245023Y809093D01*
X1243226Y807297D01*
X1241956Y805096D01*
X1241298Y802641D01*
Y800099D01*
X1241956Y797645D01*
X1243226Y795443D01*
X1245023Y793646D01*
X1247225Y792376D01*
X1249679Y791718D01*
X1252221D01*
X1254676Y792376D01*
X1256877Y793646D01*
X1258673Y795443D01*
X1259944Y797645D01*
X1260602Y800099D01*
Y802641D01*
X1259944Y805096D01*
X1258673Y807297D01*
X1256877Y809093D01*
X1254676Y810364D01*
X1252221Y811022D01*
D02*
G37*
G36*
X1226821D02*
X1224279D01*
X1221824Y810364D01*
X1219623Y809093D01*
X1217827Y807297D01*
X1216556Y805096D01*
X1215898Y802641D01*
Y800099D01*
X1216556Y797645D01*
X1217827Y795443D01*
X1219623Y793646D01*
X1221824Y792376D01*
X1224279Y791718D01*
X1226821D01*
X1229276Y792376D01*
X1231477Y793646D01*
X1233273Y795443D01*
X1234544Y797645D01*
X1235202Y800099D01*
Y802641D01*
X1234544Y805096D01*
X1233273Y807297D01*
X1231477Y809093D01*
X1229276Y810364D01*
X1226821Y811022D01*
D02*
G37*
G36*
X1201421D02*
X1198879D01*
X1196424Y810364D01*
X1194223Y809093D01*
X1192427Y807297D01*
X1191156Y805096D01*
X1190498Y802641D01*
Y800099D01*
X1191156Y797645D01*
X1192427Y795443D01*
X1194223Y793646D01*
X1196424Y792376D01*
X1198879Y791718D01*
X1201421D01*
X1203876Y792376D01*
X1206077Y793646D01*
X1207874Y795443D01*
X1209144Y797645D01*
X1209802Y800099D01*
Y802641D01*
X1209144Y805096D01*
X1207874Y807297D01*
X1206077Y809093D01*
X1203876Y810364D01*
X1201421Y811022D01*
D02*
G37*
G36*
X1176021D02*
X1173479D01*
X1171024Y810364D01*
X1168823Y809093D01*
X1167027Y807297D01*
X1165756Y805096D01*
X1165098Y802641D01*
Y800099D01*
X1165756Y797645D01*
X1167027Y795443D01*
X1168823Y793646D01*
X1171024Y792376D01*
X1173479Y791718D01*
X1176021D01*
X1178475Y792376D01*
X1180676Y793646D01*
X1182474Y795443D01*
X1183744Y797645D01*
X1184402Y800099D01*
Y802641D01*
X1183744Y805096D01*
X1182474Y807297D01*
X1180676Y809093D01*
X1178475Y810364D01*
X1176021Y811022D01*
D02*
G37*
G36*
X1150621D02*
X1148079D01*
X1145624Y810364D01*
X1143423Y809093D01*
X1141627Y807297D01*
X1140356Y805096D01*
X1139698Y802641D01*
Y800099D01*
X1140356Y797645D01*
X1141627Y795443D01*
X1143423Y793646D01*
X1145624Y792376D01*
X1148079Y791718D01*
X1150621D01*
X1153075Y792376D01*
X1155276Y793646D01*
X1157074Y795443D01*
X1158344Y797645D01*
X1159002Y800099D01*
Y802641D01*
X1158344Y805096D01*
X1157074Y807297D01*
X1155276Y809093D01*
X1153075Y810364D01*
X1150621Y811022D01*
D02*
G37*
G36*
X1108202D02*
X1088898D01*
Y791718D01*
X1108202D01*
Y811022D01*
D02*
G37*
G36*
X1133788Y798830D02*
X1126490D01*
Y791532D01*
X1127872Y791902D01*
X1130188Y793240D01*
X1132080Y795132D01*
X1133418Y797448D01*
X1133788Y798830D01*
D02*
G37*
G36*
X1121410D02*
X1114112D01*
X1114482Y797448D01*
X1115820Y795132D01*
X1117712Y793240D01*
X1120028Y791902D01*
X1121410Y791532D01*
Y798830D01*
D02*
G37*
G36*
X426720Y699448D02*
Y692150D01*
X434018D01*
X433648Y693532D01*
X432310Y695848D01*
X430418Y697740D01*
X428102Y699078D01*
X426720Y699448D01*
D02*
G37*
G36*
X200406D02*
Y692150D01*
X207704D01*
X207334Y693532D01*
X205996Y695848D01*
X204104Y697740D01*
X201788Y699078D01*
X200406Y699448D01*
D02*
G37*
G36*
X421640D02*
X420258Y699078D01*
X417942Y697740D01*
X416050Y695848D01*
X414712Y693532D01*
X414342Y692150D01*
X421640D01*
Y699448D01*
D02*
G37*
G36*
X195326D02*
X193944Y699078D01*
X191628Y697740D01*
X189736Y695848D01*
X188398Y693532D01*
X188028Y692150D01*
X195326D01*
Y699448D01*
D02*
G37*
G36*
X434018Y687070D02*
X426720D01*
Y679772D01*
X428102Y680142D01*
X430418Y681480D01*
X432310Y683372D01*
X433648Y685688D01*
X434018Y687070D01*
D02*
G37*
G36*
X207704D02*
X200406D01*
Y679772D01*
X201788Y680142D01*
X204104Y681480D01*
X205996Y683372D01*
X207334Y685688D01*
X207704Y687070D01*
D02*
G37*
G36*
X421640D02*
X414342D01*
X414712Y685688D01*
X416050Y683372D01*
X417942Y681480D01*
X420258Y680142D01*
X421640Y679772D01*
Y687070D01*
D02*
G37*
G36*
X195326D02*
X188028D01*
X188398Y685688D01*
X189736Y683372D01*
X191628Y681480D01*
X193944Y680142D01*
X195326Y679772D01*
Y687070D01*
D02*
G37*
G36*
X1008200Y678042D02*
X1006020D01*
X1003913Y677478D01*
X1002025Y676387D01*
X1000483Y674845D01*
X999392Y672957D01*
X998828Y670850D01*
Y668670D01*
X999392Y666563D01*
X1000483Y664675D01*
X1002025Y663133D01*
X1003913Y662042D01*
X1006020Y661478D01*
X1008200D01*
X1010307Y662042D01*
X1012195Y663133D01*
X1013737Y664675D01*
X1014828Y666563D01*
X1015392Y668670D01*
Y670850D01*
X1014828Y672957D01*
X1013737Y674845D01*
X1012195Y676387D01*
X1010307Y677478D01*
X1008200Y678042D01*
D02*
G37*
G36*
X900885D02*
X898705D01*
X896598Y677478D01*
X894710Y676387D01*
X893168Y674845D01*
X892077Y672957D01*
X891513Y670850D01*
Y668670D01*
X892077Y666563D01*
X893168Y664675D01*
X894710Y663133D01*
X896598Y662042D01*
X898705Y661478D01*
X900885D01*
X902992Y662042D01*
X904880Y663133D01*
X906422Y664675D01*
X907513Y666563D01*
X908077Y668670D01*
Y670850D01*
X907513Y672957D01*
X906422Y674845D01*
X904880Y676387D01*
X902992Y677478D01*
X900885Y678042D01*
D02*
G37*
G36*
X793570D02*
X791390D01*
X789283Y677478D01*
X787395Y676387D01*
X785853Y674845D01*
X784762Y672957D01*
X784198Y670850D01*
Y668670D01*
X784762Y666563D01*
X785853Y664675D01*
X787395Y663133D01*
X789283Y662042D01*
X791390Y661478D01*
X793570D01*
X795677Y662042D01*
X797565Y663133D01*
X799107Y664675D01*
X800198Y666563D01*
X800762Y668670D01*
Y670850D01*
X800198Y672957D01*
X799107Y674845D01*
X797565Y676387D01*
X795677Y677478D01*
X793570Y678042D01*
D02*
G37*
G36*
X425451Y673862D02*
X422909D01*
X420454Y673204D01*
X418254Y671934D01*
X416456Y670136D01*
X415186Y667935D01*
X414528Y665481D01*
Y662939D01*
X415186Y660484D01*
X416456Y658283D01*
X418254Y656487D01*
X420454Y655216D01*
X422909Y654558D01*
X425451D01*
X427906Y655216D01*
X430107Y656487D01*
X431903Y658283D01*
X433174Y660484D01*
X433832Y662939D01*
Y665481D01*
X433174Y667935D01*
X431903Y670136D01*
X430107Y671934D01*
X427906Y673204D01*
X425451Y673862D01*
D02*
G37*
G36*
X199137D02*
X196595D01*
X194140Y673204D01*
X191940Y671934D01*
X190142Y670136D01*
X188872Y667935D01*
X188214Y665481D01*
Y662939D01*
X188872Y660484D01*
X190142Y658283D01*
X191940Y656487D01*
X194140Y655216D01*
X196595Y654558D01*
X199137D01*
X201591Y655216D01*
X203792Y656487D01*
X205590Y658283D01*
X206860Y660484D01*
X207518Y662939D01*
Y665481D01*
X206860Y667935D01*
X205590Y670136D01*
X203792Y671934D01*
X201591Y673204D01*
X199137Y673862D01*
D02*
G37*
G36*
X425451Y648462D02*
X422909D01*
X420454Y647804D01*
X418254Y646534D01*
X416456Y644736D01*
X415186Y642535D01*
X414528Y640081D01*
Y637539D01*
X415186Y635084D01*
X416456Y632883D01*
X418254Y631087D01*
X420454Y629816D01*
X422909Y629158D01*
X425451D01*
X427906Y629816D01*
X430107Y631087D01*
X431903Y632883D01*
X433174Y635084D01*
X433832Y637539D01*
Y640081D01*
X433174Y642535D01*
X431903Y644736D01*
X430107Y646534D01*
X427906Y647804D01*
X425451Y648462D01*
D02*
G37*
G36*
X199137D02*
X196595D01*
X194140Y647804D01*
X191940Y646534D01*
X190142Y644736D01*
X188872Y642535D01*
X188214Y640081D01*
Y637539D01*
X188872Y635084D01*
X190142Y632883D01*
X191940Y631087D01*
X194140Y629816D01*
X196595Y629158D01*
X199137D01*
X201591Y629816D01*
X203792Y631087D01*
X205590Y632883D01*
X206860Y635084D01*
X207518Y637539D01*
Y640081D01*
X206860Y642535D01*
X205590Y644736D01*
X203792Y646534D01*
X201591Y647804D01*
X199137Y648462D01*
D02*
G37*
G36*
X425451Y623062D02*
X422909D01*
X420454Y622404D01*
X418254Y621133D01*
X416456Y619337D01*
X415186Y617136D01*
X414528Y614681D01*
Y612139D01*
X415186Y609684D01*
X416456Y607483D01*
X418254Y605686D01*
X420454Y604416D01*
X422909Y603758D01*
X425451D01*
X427906Y604416D01*
X430107Y605686D01*
X431903Y607483D01*
X433174Y609684D01*
X433832Y612139D01*
Y614681D01*
X433174Y617136D01*
X431903Y619337D01*
X430107Y621133D01*
X427906Y622404D01*
X425451Y623062D01*
D02*
G37*
G36*
X199137D02*
X196595D01*
X194140Y622404D01*
X191940Y621133D01*
X190142Y619337D01*
X188872Y617136D01*
X188214Y614681D01*
Y612139D01*
X188872Y609684D01*
X190142Y607483D01*
X191940Y605686D01*
X194140Y604416D01*
X196595Y603758D01*
X199137D01*
X201591Y604416D01*
X203792Y605686D01*
X205590Y607483D01*
X206860Y609684D01*
X207518Y612139D01*
Y614681D01*
X206860Y617136D01*
X205590Y619337D01*
X203792Y621133D01*
X201591Y622404D01*
X199137Y623062D01*
D02*
G37*
G36*
X1179831Y597662D02*
X1177289D01*
X1174835Y597004D01*
X1172634Y595733D01*
X1170836Y593937D01*
X1169566Y591735D01*
X1168908Y589281D01*
Y586739D01*
X1169566Y584285D01*
X1170836Y582084D01*
X1172634Y580286D01*
X1174835Y579016D01*
X1177289Y578358D01*
X1179831D01*
X1182286Y579016D01*
X1184486Y580286D01*
X1186283Y582084D01*
X1187554Y584285D01*
X1188212Y586739D01*
Y589281D01*
X1187554Y591735D01*
X1186283Y593937D01*
X1184486Y595733D01*
X1182286Y597004D01*
X1179831Y597662D01*
D02*
G37*
G36*
X425451D02*
X422909D01*
X420454Y597004D01*
X418254Y595733D01*
X416456Y593937D01*
X415186Y591735D01*
X414528Y589281D01*
Y586739D01*
X415186Y584285D01*
X416456Y582084D01*
X418254Y580286D01*
X420454Y579016D01*
X422909Y578358D01*
X425451D01*
X427906Y579016D01*
X430107Y580286D01*
X431903Y582084D01*
X433174Y584285D01*
X433832Y586739D01*
Y589281D01*
X433174Y591735D01*
X431903Y593937D01*
X430107Y595733D01*
X427906Y597004D01*
X425451Y597662D01*
D02*
G37*
G36*
X199137D02*
X196595D01*
X194140Y597004D01*
X191940Y595733D01*
X190142Y593937D01*
X188872Y591735D01*
X188214Y589281D01*
Y586739D01*
X188872Y584285D01*
X190142Y582084D01*
X191940Y580286D01*
X194140Y579016D01*
X196595Y578358D01*
X199137D01*
X201591Y579016D01*
X203792Y580286D01*
X205590Y582084D01*
X206860Y584285D01*
X207518Y586739D01*
Y589281D01*
X206860Y591735D01*
X205590Y593937D01*
X203792Y595733D01*
X201591Y597004D01*
X199137Y597662D01*
D02*
G37*
G36*
X1181100Y572448D02*
Y565150D01*
X1188398D01*
X1188028Y566532D01*
X1186690Y568848D01*
X1184798Y570740D01*
X1182482Y572078D01*
X1181100Y572448D01*
D02*
G37*
G36*
X1176020D02*
X1174638Y572078D01*
X1172322Y570740D01*
X1170430Y568848D01*
X1169092Y566532D01*
X1168722Y565150D01*
X1176020D01*
Y572448D01*
D02*
G37*
G36*
X980274Y578612D02*
X978066D01*
X975935Y578041D01*
X974023Y576937D01*
X972463Y575377D01*
X971359Y573465D01*
X970788Y571334D01*
Y569127D01*
X971320Y567141D01*
X940946Y536767D01*
X737870D01*
X736582Y536510D01*
X735489Y535781D01*
X537085Y337377D01*
X471285D01*
X470257Y339157D01*
X468697Y340717D01*
X466785Y341821D01*
X464654Y342392D01*
X462447D01*
X460315Y341821D01*
X458403Y340717D01*
X456843Y339157D01*
X455739Y337245D01*
X455168Y335113D01*
Y332906D01*
X455739Y330775D01*
X456843Y328863D01*
X458403Y327303D01*
X460315Y326199D01*
X462447Y325628D01*
X464654D01*
X466785Y326199D01*
X468697Y327303D01*
X470257Y328863D01*
X471285Y330643D01*
X538480D01*
X539768Y330900D01*
X540861Y331629D01*
X739265Y530033D01*
X942340D01*
X943628Y530290D01*
X944721Y531019D01*
X976081Y562380D01*
X978066Y561848D01*
X980274D01*
X982405Y562419D01*
X984317Y563523D01*
X985877Y565083D01*
X986981Y566995D01*
X987552Y569127D01*
Y571334D01*
X986981Y573465D01*
X985877Y575377D01*
X984317Y576937D01*
X982405Y578041D01*
X980274Y578612D01*
D02*
G37*
G36*
X1015392Y578042D02*
X998828D01*
Y561478D01*
X1015392D01*
Y578042D01*
D02*
G37*
G36*
X908077D02*
X891513D01*
Y561478D01*
X908077D01*
Y578042D01*
D02*
G37*
G36*
X800762D02*
X784198D01*
Y561478D01*
X800762D01*
Y578042D01*
D02*
G37*
G36*
X425451Y572262D02*
X422909D01*
X420454Y571604D01*
X418254Y570334D01*
X416456Y568536D01*
X415186Y566335D01*
X414528Y563881D01*
Y561339D01*
X415186Y558885D01*
X416456Y556684D01*
X418254Y554887D01*
X420454Y553616D01*
X422909Y552958D01*
X425451D01*
X427906Y553616D01*
X430107Y554887D01*
X431903Y556684D01*
X433174Y558885D01*
X433832Y561339D01*
Y563881D01*
X433174Y566335D01*
X431903Y568536D01*
X430107Y570334D01*
X427906Y571604D01*
X425451Y572262D01*
D02*
G37*
G36*
X199137D02*
X196595D01*
X194140Y571604D01*
X191940Y570334D01*
X190142Y568536D01*
X188872Y566335D01*
X188214Y563881D01*
Y561339D01*
X188872Y558885D01*
X190142Y556684D01*
X191940Y554887D01*
X194140Y553616D01*
X196595Y552958D01*
X199137D01*
X201591Y553616D01*
X203792Y554887D01*
X205590Y556684D01*
X206860Y558885D01*
X207518Y561339D01*
Y563881D01*
X206860Y566335D01*
X205590Y568536D01*
X203792Y570334D01*
X201591Y571604D01*
X199137Y572262D01*
D02*
G37*
G36*
X1188398Y560070D02*
X1181100D01*
Y552772D01*
X1182482Y553142D01*
X1184798Y554480D01*
X1186690Y556372D01*
X1188028Y558688D01*
X1188398Y560070D01*
D02*
G37*
G36*
X1176020D02*
X1168722D01*
X1169092Y558688D01*
X1170430Y556372D01*
X1172322Y554480D01*
X1174638Y553142D01*
X1176020Y552772D01*
Y560070D01*
D02*
G37*
G36*
X719923Y553212D02*
X717717D01*
X715585Y552641D01*
X713673Y551537D01*
X712113Y549977D01*
X711009Y548065D01*
X710438Y545933D01*
Y543727D01*
X710970Y541741D01*
X557406Y388177D01*
X471285D01*
X470257Y389957D01*
X468697Y391517D01*
X466785Y392621D01*
X464654Y393192D01*
X462447D01*
X460315Y392621D01*
X458403Y391517D01*
X456843Y389957D01*
X455739Y388045D01*
X455168Y385914D01*
Y383707D01*
X455739Y381575D01*
X456843Y379663D01*
X458403Y378103D01*
X460315Y376999D01*
X462447Y376428D01*
X464654D01*
X466785Y376999D01*
X468697Y378103D01*
X470257Y379663D01*
X471285Y381443D01*
X558800D01*
X560088Y381700D01*
X561181Y382429D01*
X715731Y536980D01*
X717717Y536448D01*
X719923D01*
X722055Y537019D01*
X723967Y538123D01*
X725527Y539683D01*
X726631Y541595D01*
X727202Y543727D01*
Y545933D01*
X726631Y548065D01*
X725527Y549977D01*
X723967Y551537D01*
X722055Y552641D01*
X719923Y553212D01*
D02*
G37*
G36*
X686904D02*
X684697D01*
X682565Y552641D01*
X680653Y551537D01*
X679093Y549977D01*
X677989Y548065D01*
X677418Y545933D01*
Y543727D01*
X677950Y541741D01*
X549785Y413577D01*
X471285D01*
X470257Y415357D01*
X468697Y416917D01*
X466785Y418021D01*
X464654Y418592D01*
X462447D01*
X460315Y418021D01*
X458403Y416917D01*
X456843Y415357D01*
X455739Y413445D01*
X455168Y411314D01*
Y409106D01*
X455739Y406975D01*
X456843Y405063D01*
X458403Y403503D01*
X460315Y402399D01*
X462447Y401828D01*
X464654D01*
X466785Y402399D01*
X468697Y403503D01*
X470257Y405063D01*
X471285Y406843D01*
X551180D01*
X552468Y407100D01*
X553561Y407829D01*
X682711Y536980D01*
X684697Y536448D01*
X686904D01*
X689035Y537019D01*
X690947Y538123D01*
X692507Y539683D01*
X693611Y541595D01*
X694182Y543727D01*
Y545933D01*
X693611Y548065D01*
X692507Y549977D01*
X690947Y551537D01*
X689035Y552641D01*
X686904Y553212D01*
D02*
G37*
G36*
X1179831Y546862D02*
X1177289D01*
X1174835Y546204D01*
X1172634Y544934D01*
X1170836Y543136D01*
X1169566Y540936D01*
X1168908Y538481D01*
Y535939D01*
X1169566Y533484D01*
X1170836Y531283D01*
X1172634Y529487D01*
X1174835Y528216D01*
X1177289Y527558D01*
X1179831D01*
X1182286Y528216D01*
X1184486Y529487D01*
X1186283Y531283D01*
X1187554Y533484D01*
X1188212Y535939D01*
Y538481D01*
X1187554Y540936D01*
X1186283Y543136D01*
X1184486Y544934D01*
X1182286Y546204D01*
X1179831Y546862D01*
D02*
G37*
G36*
X425451D02*
X422909D01*
X420454Y546204D01*
X418254Y544934D01*
X416456Y543136D01*
X415186Y540936D01*
X414528Y538481D01*
Y535939D01*
X415186Y533484D01*
X416456Y531283D01*
X418254Y529487D01*
X420454Y528216D01*
X422909Y527558D01*
X425451D01*
X427906Y528216D01*
X430107Y529487D01*
X431903Y531283D01*
X433174Y533484D01*
X433832Y535939D01*
Y538481D01*
X433174Y540936D01*
X431903Y543136D01*
X430107Y544934D01*
X427906Y546204D01*
X425451Y546862D01*
D02*
G37*
G36*
X199137D02*
X196595D01*
X194140Y546204D01*
X191940Y544934D01*
X190142Y543136D01*
X188872Y540936D01*
X188214Y538481D01*
Y535939D01*
X188872Y533484D01*
X190142Y531283D01*
X191940Y529487D01*
X194140Y528216D01*
X196595Y527558D01*
X199137D01*
X201591Y528216D01*
X203792Y529487D01*
X205590Y531283D01*
X206860Y533484D01*
X207518Y535939D01*
Y538481D01*
X206860Y540936D01*
X205590Y543136D01*
X203792Y544934D01*
X201591Y546204D01*
X199137Y546862D01*
D02*
G37*
G36*
X1179831Y521462D02*
X1177289D01*
X1174835Y520804D01*
X1172634Y519534D01*
X1170836Y517737D01*
X1169566Y515536D01*
X1168908Y513081D01*
Y510539D01*
X1169566Y508084D01*
X1170836Y505883D01*
X1172634Y504086D01*
X1174835Y502816D01*
X1177289Y502158D01*
X1179831D01*
X1182286Y502816D01*
X1184486Y504086D01*
X1186283Y505883D01*
X1187554Y508084D01*
X1188212Y510539D01*
Y513081D01*
X1187554Y515536D01*
X1186283Y517737D01*
X1184486Y519534D01*
X1182286Y520804D01*
X1179831Y521462D01*
D02*
G37*
G36*
X425451D02*
X422909D01*
X420454Y520804D01*
X418254Y519534D01*
X416456Y517737D01*
X415186Y515536D01*
X414528Y513081D01*
Y510539D01*
X415186Y508084D01*
X416456Y505883D01*
X418254Y504086D01*
X420454Y502816D01*
X422909Y502158D01*
X425451D01*
X427906Y502816D01*
X430107Y504086D01*
X431903Y505883D01*
X433174Y508084D01*
X433832Y510539D01*
Y513081D01*
X433174Y515536D01*
X431903Y517737D01*
X430107Y519534D01*
X427906Y520804D01*
X425451Y521462D01*
D02*
G37*
G36*
X199137D02*
X196595D01*
X194140Y520804D01*
X191940Y519534D01*
X190142Y517737D01*
X188872Y515536D01*
X188214Y513081D01*
Y510539D01*
X188872Y508084D01*
X190142Y505883D01*
X191940Y504086D01*
X194140Y502816D01*
X196595Y502158D01*
X199137D01*
X201591Y502816D01*
X203792Y504086D01*
X205590Y505883D01*
X206860Y508084D01*
X207518Y510539D01*
Y513081D01*
X206860Y515536D01*
X205590Y517737D01*
X203792Y519534D01*
X201591Y520804D01*
X199137Y521462D01*
D02*
G37*
G36*
X1179831Y496062D02*
X1177289D01*
X1174835Y495404D01*
X1172634Y494133D01*
X1170836Y492337D01*
X1169566Y490135D01*
X1168908Y487681D01*
Y485139D01*
X1169566Y482685D01*
X1170836Y480484D01*
X1172634Y478686D01*
X1174835Y477416D01*
X1177289Y476758D01*
X1179831D01*
X1182286Y477416D01*
X1184486Y478686D01*
X1186283Y480484D01*
X1187554Y482685D01*
X1188212Y485139D01*
Y487681D01*
X1187554Y490135D01*
X1186283Y492337D01*
X1184486Y494133D01*
X1182286Y495404D01*
X1179831Y496062D01*
D02*
G37*
G36*
X425451D02*
X422909D01*
X420454Y495404D01*
X418254Y494133D01*
X416456Y492337D01*
X415186Y490135D01*
X414528Y487681D01*
Y485139D01*
X415186Y482685D01*
X416456Y480484D01*
X418254Y478686D01*
X420454Y477416D01*
X422909Y476758D01*
X425451D01*
X427906Y477416D01*
X430107Y478686D01*
X431903Y480484D01*
X433174Y482685D01*
X433832Y485139D01*
Y487681D01*
X433174Y490135D01*
X431903Y492337D01*
X430107Y494133D01*
X427906Y495404D01*
X425451Y496062D01*
D02*
G37*
G36*
X199137D02*
X196595D01*
X194140Y495404D01*
X191940Y494133D01*
X190142Y492337D01*
X188872Y490135D01*
X188214Y487681D01*
Y485139D01*
X188872Y482685D01*
X190142Y480484D01*
X191940Y478686D01*
X194140Y477416D01*
X196595Y476758D01*
X199137D01*
X201591Y477416D01*
X203792Y478686D01*
X205590Y480484D01*
X206860Y482685D01*
X207518Y485139D01*
Y487681D01*
X206860Y490135D01*
X205590Y492337D01*
X203792Y494133D01*
X201591Y495404D01*
X199137Y496062D01*
D02*
G37*
G36*
X1179831Y470662D02*
X1177289D01*
X1174835Y470004D01*
X1172634Y468733D01*
X1170836Y466936D01*
X1169566Y464735D01*
X1168908Y462281D01*
Y459739D01*
X1169566Y457285D01*
X1170836Y455084D01*
X1172634Y453287D01*
X1174835Y452016D01*
X1177289Y451358D01*
X1179831D01*
X1182286Y452016D01*
X1184486Y453287D01*
X1186283Y455084D01*
X1187554Y457285D01*
X1188212Y459739D01*
Y462281D01*
X1187554Y464735D01*
X1186283Y466936D01*
X1184486Y468733D01*
X1182286Y470004D01*
X1179831Y470662D01*
D02*
G37*
G36*
X425451D02*
X422909D01*
X420454Y470004D01*
X418254Y468733D01*
X416456Y466936D01*
X415186Y464735D01*
X414528Y462281D01*
Y459739D01*
X415186Y457285D01*
X416456Y455084D01*
X418254Y453287D01*
X420454Y452016D01*
X422909Y451358D01*
X425451D01*
X427906Y452016D01*
X430107Y453287D01*
X431903Y455084D01*
X433174Y457285D01*
X433832Y459739D01*
Y462281D01*
X433174Y464735D01*
X431903Y466936D01*
X430107Y468733D01*
X427906Y470004D01*
X425451Y470662D01*
D02*
G37*
G36*
X199137D02*
X196595D01*
X194140Y470004D01*
X191940Y468733D01*
X190142Y466936D01*
X188872Y464735D01*
X188214Y462281D01*
Y459739D01*
X188872Y457285D01*
X190142Y455084D01*
X191940Y453287D01*
X194140Y452016D01*
X196595Y451358D01*
X199137D01*
X201591Y452016D01*
X203792Y453287D01*
X205590Y455084D01*
X206860Y457285D01*
X207518Y459739D01*
Y462281D01*
X206860Y464735D01*
X205590Y466936D01*
X203792Y468733D01*
X201591Y470004D01*
X199137Y470662D01*
D02*
G37*
G36*
X425451Y445262D02*
X422909D01*
X420454Y444604D01*
X418254Y443334D01*
X416456Y441536D01*
X415186Y439336D01*
X414528Y436881D01*
Y434339D01*
X415186Y431884D01*
X416456Y429683D01*
X418254Y427887D01*
X420454Y426616D01*
X422909Y425958D01*
X425451D01*
X427906Y426616D01*
X430107Y427887D01*
X431903Y429683D01*
X433174Y431884D01*
X433832Y434339D01*
Y436881D01*
X433174Y439336D01*
X431903Y441536D01*
X430107Y443334D01*
X427906Y444604D01*
X425451Y445262D01*
D02*
G37*
G36*
X199137D02*
X196595D01*
X194140Y444604D01*
X191940Y443334D01*
X190142Y441536D01*
X188872Y439336D01*
X188214Y436881D01*
Y434339D01*
X188872Y431884D01*
X190142Y429683D01*
X191940Y427887D01*
X194140Y426616D01*
X196595Y425958D01*
X199137D01*
X201591Y426616D01*
X203792Y427887D01*
X205590Y429683D01*
X206860Y431884D01*
X207518Y434339D01*
Y436881D01*
X206860Y439336D01*
X205590Y441536D01*
X203792Y443334D01*
X201591Y444604D01*
X199137Y445262D01*
D02*
G37*
G36*
X801012Y442272D02*
X783948D01*
Y425208D01*
X801012D01*
Y442272D01*
D02*
G37*
G36*
X425451Y419862D02*
X422909D01*
X420454Y419204D01*
X418254Y417934D01*
X416456Y416137D01*
X415186Y413936D01*
X414528Y411481D01*
Y408939D01*
X415186Y406484D01*
X416456Y404283D01*
X418254Y402486D01*
X420454Y401216D01*
X422909Y400558D01*
X425451D01*
X427906Y401216D01*
X430107Y402486D01*
X431903Y404283D01*
X433174Y406484D01*
X433832Y408939D01*
Y411481D01*
X433174Y413936D01*
X431903Y416137D01*
X430107Y417934D01*
X427906Y419204D01*
X425451Y419862D01*
D02*
G37*
G36*
X199137D02*
X196595D01*
X194140Y419204D01*
X191940Y417934D01*
X190142Y416137D01*
X188872Y413936D01*
X188214Y411481D01*
Y408939D01*
X188872Y406484D01*
X190142Y404283D01*
X191940Y402486D01*
X194140Y401216D01*
X196595Y400558D01*
X199137D01*
X201591Y401216D01*
X203792Y402486D01*
X205590Y404283D01*
X206860Y406484D01*
X207518Y408939D01*
Y411481D01*
X206860Y413936D01*
X205590Y416137D01*
X203792Y417934D01*
X201591Y419204D01*
X199137Y419862D01*
D02*
G37*
G36*
X425451Y394462D02*
X422909D01*
X420454Y393804D01*
X418254Y392533D01*
X416456Y390737D01*
X415186Y388535D01*
X414528Y386081D01*
Y383539D01*
X415186Y381085D01*
X416456Y378884D01*
X418254Y377086D01*
X420454Y375816D01*
X422909Y375158D01*
X425451D01*
X427906Y375816D01*
X430107Y377086D01*
X431903Y378884D01*
X433174Y381085D01*
X433832Y383539D01*
Y386081D01*
X433174Y388535D01*
X431903Y390737D01*
X430107Y392533D01*
X427906Y393804D01*
X425451Y394462D01*
D02*
G37*
G36*
X199137D02*
X196595D01*
X194140Y393804D01*
X191940Y392533D01*
X190142Y390737D01*
X188872Y388535D01*
X188214Y386081D01*
Y383539D01*
X188872Y381085D01*
X190142Y378884D01*
X191940Y377086D01*
X194140Y375816D01*
X196595Y375158D01*
X199137D01*
X201591Y375816D01*
X203792Y377086D01*
X205590Y378884D01*
X206860Y381085D01*
X207518Y383539D01*
Y386081D01*
X206860Y388535D01*
X205590Y390737D01*
X203792Y392533D01*
X201591Y393804D01*
X199137Y394462D01*
D02*
G37*
G36*
X795020Y367418D02*
Y361280D01*
X801158D01*
X800904Y362229D01*
X799714Y364291D01*
X798031Y365974D01*
X795969Y367164D01*
X795020Y367418D01*
D02*
G37*
G36*
X789940D02*
X788991Y367164D01*
X786929Y365974D01*
X785246Y364291D01*
X784056Y362229D01*
X783802Y361280D01*
X789940D01*
Y367418D01*
D02*
G37*
G36*
X801158Y356200D02*
X795020D01*
Y350062D01*
X795969Y350316D01*
X798031Y351506D01*
X799714Y353189D01*
X800904Y355251D01*
X801158Y356200D01*
D02*
G37*
G36*
X789940D02*
X783802D01*
X784056Y355251D01*
X785246Y353189D01*
X786929Y351506D01*
X788991Y350316D01*
X789940Y350062D01*
Y356200D01*
D02*
G37*
G36*
X425451Y369062D02*
X422909D01*
X420454Y368404D01*
X418254Y367133D01*
X416456Y365336D01*
X415186Y363135D01*
X414528Y360681D01*
Y358139D01*
X415186Y355685D01*
X416456Y353484D01*
X418254Y351687D01*
X420454Y350416D01*
X422909Y349758D01*
X425451D01*
X427906Y350416D01*
X430107Y351687D01*
X431903Y353484D01*
X433174Y355685D01*
X433832Y358139D01*
Y360681D01*
X433174Y363135D01*
X431903Y365336D01*
X430107Y367133D01*
X427906Y368404D01*
X425451Y369062D01*
D02*
G37*
G36*
X199137D02*
X196595D01*
X194140Y368404D01*
X191940Y367133D01*
X190142Y365336D01*
X188872Y363135D01*
X188214Y360681D01*
Y358139D01*
X188872Y355685D01*
X190142Y353484D01*
X191940Y351687D01*
X194140Y350416D01*
X196595Y349758D01*
X199137D01*
X201591Y350416D01*
X203792Y351687D01*
X205590Y353484D01*
X206860Y355685D01*
X207518Y358139D01*
Y360681D01*
X206860Y363135D01*
X205590Y365336D01*
X203792Y367133D01*
X201591Y368404D01*
X199137Y369062D01*
D02*
G37*
G36*
X425451Y343662D02*
X422909D01*
X420454Y343004D01*
X418254Y341734D01*
X416456Y339936D01*
X415186Y337735D01*
X414528Y335281D01*
Y332739D01*
X415186Y330285D01*
X416456Y328083D01*
X418254Y326287D01*
X420454Y325016D01*
X422909Y324358D01*
X425451D01*
X427906Y325016D01*
X430107Y326287D01*
X431903Y328083D01*
X433174Y330285D01*
X433832Y332739D01*
Y335281D01*
X433174Y337735D01*
X431903Y339936D01*
X430107Y341734D01*
X427906Y343004D01*
X425451Y343662D01*
D02*
G37*
G36*
X199137D02*
X196595D01*
X194140Y343004D01*
X191940Y341734D01*
X190142Y339936D01*
X188872Y337735D01*
X188214Y335281D01*
Y332739D01*
X188872Y330285D01*
X190142Y328083D01*
X191940Y326287D01*
X194140Y325016D01*
X196595Y324358D01*
X199137D01*
X201591Y325016D01*
X203792Y326287D01*
X205590Y328083D01*
X206860Y330285D01*
X207518Y332739D01*
Y335281D01*
X206860Y337735D01*
X205590Y339936D01*
X203792Y341734D01*
X201591Y343004D01*
X199137Y343662D01*
D02*
G37*
G36*
X425451Y318262D02*
X422909D01*
X420454Y317604D01*
X418254Y316334D01*
X416456Y314536D01*
X415186Y312335D01*
X414528Y309881D01*
Y307339D01*
X415186Y304884D01*
X416456Y302684D01*
X418254Y300886D01*
X420454Y299616D01*
X422909Y298958D01*
X425451D01*
X427906Y299616D01*
X430107Y300886D01*
X431903Y302684D01*
X433174Y304884D01*
X433832Y307339D01*
Y309881D01*
X433174Y312335D01*
X431903Y314536D01*
X430107Y316334D01*
X427906Y317604D01*
X425451Y318262D01*
D02*
G37*
G36*
X199137D02*
X196595D01*
X194140Y317604D01*
X191940Y316334D01*
X190142Y314536D01*
X188872Y312335D01*
X188214Y309881D01*
Y307339D01*
X188872Y304884D01*
X190142Y302684D01*
X191940Y300886D01*
X194140Y299616D01*
X196595Y298958D01*
X199137D01*
X201591Y299616D01*
X203792Y300886D01*
X205590Y302684D01*
X206860Y304884D01*
X207518Y307339D01*
Y309881D01*
X206860Y312335D01*
X205590Y314536D01*
X203792Y316334D01*
X201591Y317604D01*
X199137Y318262D01*
D02*
G37*
G36*
X425451Y292862D02*
X422909D01*
X420454Y292204D01*
X418254Y290933D01*
X416456Y289137D01*
X415186Y286936D01*
X414528Y284481D01*
Y281939D01*
X415186Y279485D01*
X416456Y277283D01*
X418254Y275487D01*
X420454Y274216D01*
X422909Y273558D01*
X425451D01*
X427906Y274216D01*
X430107Y275487D01*
X431903Y277283D01*
X433174Y279485D01*
X433832Y281939D01*
Y284481D01*
X433174Y286936D01*
X431903Y289137D01*
X430107Y290933D01*
X427906Y292204D01*
X425451Y292862D01*
D02*
G37*
G36*
X199137D02*
X196595D01*
X194140Y292204D01*
X191940Y290933D01*
X190142Y289137D01*
X188872Y286936D01*
X188214Y284481D01*
Y281939D01*
X188872Y279485D01*
X190142Y277283D01*
X191940Y275487D01*
X194140Y274216D01*
X196595Y273558D01*
X199137D01*
X201591Y274216D01*
X203792Y275487D01*
X205590Y277283D01*
X206860Y279485D01*
X207518Y281939D01*
Y284481D01*
X206860Y286936D01*
X205590Y289137D01*
X203792Y290933D01*
X201591Y292204D01*
X199137Y292862D01*
D02*
G37*
G36*
X128104Y276352D02*
X125897D01*
X123765Y275781D01*
X121853Y274677D01*
X120293Y273117D01*
X119189Y271205D01*
X118618Y269074D01*
Y266866D01*
X119189Y264735D01*
X120293Y262823D01*
X121853Y261263D01*
X123765Y260159D01*
X125897Y259588D01*
X128104D01*
X130235Y260159D01*
X132147Y261263D01*
X133707Y262823D01*
X134735Y264603D01*
X158432D01*
X158477Y264433D01*
X159581Y262522D01*
X161141Y260961D01*
X163053Y259858D01*
X165184Y259286D01*
X167391D01*
X169523Y259858D01*
X171435Y260961D01*
X172995Y262522D01*
X174099Y264433D01*
X174670Y266565D01*
Y268772D01*
X174099Y270904D01*
X172995Y272815D01*
X171435Y274376D01*
X169523Y275479D01*
X167391Y276050D01*
X165184D01*
X163053Y275479D01*
X161141Y274376D01*
X159581Y272815D01*
X158727Y271337D01*
X134735D01*
X133707Y273117D01*
X132147Y274677D01*
X130235Y275781D01*
X128104Y276352D01*
D02*
G37*
G36*
X425451Y267462D02*
X422909D01*
X420454Y266804D01*
X418254Y265534D01*
X416456Y263736D01*
X415186Y261535D01*
X414528Y259081D01*
Y256539D01*
X415186Y254084D01*
X416456Y251884D01*
X418254Y250086D01*
X420454Y248816D01*
X422909Y248158D01*
X425451D01*
X427906Y248816D01*
X430107Y250086D01*
X431903Y251884D01*
X433174Y254084D01*
X433832Y256539D01*
Y259081D01*
X433174Y261535D01*
X431903Y263736D01*
X430107Y265534D01*
X427906Y266804D01*
X425451Y267462D01*
D02*
G37*
G36*
X199137D02*
X196595D01*
X194140Y266804D01*
X191940Y265534D01*
X190142Y263736D01*
X188872Y261535D01*
X188214Y259081D01*
Y256539D01*
X188872Y254084D01*
X190142Y251884D01*
X191940Y250086D01*
X194140Y248816D01*
X196595Y248158D01*
X199137D01*
X201591Y248816D01*
X203792Y250086D01*
X205590Y251884D01*
X206860Y254084D01*
X207518Y256539D01*
Y259081D01*
X206860Y261535D01*
X205590Y263736D01*
X203792Y265534D01*
X201591Y266804D01*
X199137Y267462D01*
D02*
G37*
G36*
X1022350Y210406D02*
Y203750D01*
X1029006D01*
X1028700Y204892D01*
X1027444Y207068D01*
X1025668Y208844D01*
X1023492Y210100D01*
X1022350Y210406D01*
D02*
G37*
G36*
X1216660D02*
Y203750D01*
X1223316D01*
X1223010Y204892D01*
X1221754Y207068D01*
X1219978Y208844D01*
X1217802Y210100D01*
X1216660Y210406D01*
D02*
G37*
G36*
X1017270D02*
X1016128Y210100D01*
X1013952Y208844D01*
X1012176Y207068D01*
X1010920Y204892D01*
X1010614Y203750D01*
X1017270D01*
Y210406D01*
D02*
G37*
G36*
X1211580D02*
X1210438Y210100D01*
X1208262Y208844D01*
X1206486Y207068D01*
X1205230Y204892D01*
X1204924Y203750D01*
X1211580D01*
Y210406D01*
D02*
G37*
G36*
X764540Y210427D02*
Y193040D01*
X781927D01*
X781270Y196346D01*
X779759Y199993D01*
X777566Y203275D01*
X774775Y206066D01*
X771492Y208259D01*
X767846Y209770D01*
X764540Y210427D01*
D02*
G37*
G36*
X759460D02*
X756154Y209770D01*
X752507Y208259D01*
X749225Y206066D01*
X746434Y203275D01*
X744241Y199993D01*
X742730Y196346D01*
X742073Y193040D01*
X759460D01*
Y210427D01*
D02*
G37*
G36*
X1189909Y210242D02*
X1187531D01*
X1185234Y209627D01*
X1183174Y208437D01*
X1181493Y206756D01*
X1180303Y204696D01*
X1179688Y202399D01*
Y200021D01*
X1180303Y197724D01*
X1181493Y195664D01*
X1183174Y193983D01*
X1185234Y192794D01*
X1187531Y192178D01*
X1189909D01*
X1192206Y192794D01*
X1194266Y193983D01*
X1195947Y195664D01*
X1197137Y197724D01*
X1197752Y200021D01*
Y202399D01*
X1197137Y204696D01*
X1195947Y206756D01*
X1194266Y208437D01*
X1192206Y209627D01*
X1189909Y210242D01*
D02*
G37*
G36*
X995599D02*
X993221D01*
X990924Y209627D01*
X988864Y208437D01*
X987183Y206756D01*
X985993Y204696D01*
X985378Y202399D01*
Y200021D01*
X985993Y197724D01*
X987183Y195664D01*
X988864Y193983D01*
X990924Y192794D01*
X993221Y192178D01*
X995599D01*
X997896Y192794D01*
X999956Y193983D01*
X1001637Y195664D01*
X1002827Y197724D01*
X1003442Y200021D01*
Y202399D01*
X1002827Y204696D01*
X1001637Y206756D01*
X999956Y208437D01*
X997896Y209627D01*
X995599Y210242D01*
D02*
G37*
G36*
X1223316Y198670D02*
X1216660D01*
Y192014D01*
X1217802Y192320D01*
X1219978Y193576D01*
X1221754Y195352D01*
X1223010Y197528D01*
X1223316Y198670D01*
D02*
G37*
G36*
X1029006D02*
X1022350D01*
Y192014D01*
X1023492Y192320D01*
X1025668Y193576D01*
X1027444Y195352D01*
X1028700Y197528D01*
X1029006Y198670D01*
D02*
G37*
G36*
X1211580D02*
X1204924D01*
X1205230Y197528D01*
X1206486Y195352D01*
X1208262Y193576D01*
X1210438Y192320D01*
X1211580Y192014D01*
Y198670D01*
D02*
G37*
G36*
X1017270D02*
X1010614D01*
X1010920Y197528D01*
X1012176Y195352D01*
X1013952Y193576D01*
X1016128Y192320D01*
X1017270Y192014D01*
Y198670D01*
D02*
G37*
G36*
X1230320Y185468D02*
X1229360D01*
Y178350D01*
X1236478D01*
Y179310D01*
X1236010Y181667D01*
X1234675Y183665D01*
X1232677Y185000D01*
X1230320Y185468D01*
D02*
G37*
G36*
X1224280D02*
X1223320D01*
X1220963Y185000D01*
X1218965Y183665D01*
X1217630Y181667D01*
X1217162Y179310D01*
Y178350D01*
X1224280D01*
Y185468D01*
D02*
G37*
G36*
X781927Y187960D02*
X764540D01*
Y170573D01*
X767846Y171230D01*
X771492Y172741D01*
X774775Y174934D01*
X777566Y177725D01*
X779759Y181007D01*
X781270Y184655D01*
X781927Y187960D01*
D02*
G37*
G36*
X759460D02*
X742073D01*
X742730Y184655D01*
X744241Y181007D01*
X746434Y177725D01*
X749225Y174934D01*
X752507Y172741D01*
X756154Y171230D01*
X759460Y170573D01*
Y187960D01*
D02*
G37*
G36*
X1202609Y184842D02*
X1200231D01*
X1197934Y184226D01*
X1195874Y183037D01*
X1194193Y181356D01*
X1193003Y179296D01*
X1192388Y176999D01*
Y174621D01*
X1193003Y172324D01*
X1194193Y170264D01*
X1195874Y168583D01*
X1197934Y167393D01*
X1200231Y166778D01*
X1202609D01*
X1204906Y167393D01*
X1206966Y168583D01*
X1208647Y170264D01*
X1209837Y172324D01*
X1210452Y174621D01*
Y176999D01*
X1209837Y179296D01*
X1208647Y181356D01*
X1206966Y183037D01*
X1204906Y184226D01*
X1202609Y184842D01*
D02*
G37*
G36*
X1008299D02*
X1005921D01*
X1003624Y184226D01*
X1001564Y183037D01*
X999883Y181356D01*
X998693Y179296D01*
X998078Y176999D01*
Y174621D01*
X998693Y172324D01*
X999883Y170264D01*
X1001564Y168583D01*
X1003624Y167393D01*
X1005921Y166778D01*
X1008299D01*
X1010596Y167393D01*
X1012656Y168583D01*
X1014337Y170264D01*
X1015527Y172324D01*
X1016142Y174621D01*
Y176999D01*
X1015527Y179296D01*
X1014337Y181356D01*
X1012656Y183037D01*
X1010596Y184226D01*
X1008299Y184842D01*
D02*
G37*
G36*
X1036010Y184950D02*
X1029010D01*
X1026852Y184521D01*
X1025022Y183298D01*
X1023799Y181469D01*
X1023370Y179310D01*
Y172310D01*
X1023799Y170152D01*
X1025022Y168322D01*
X1026852Y167099D01*
X1029010Y166670D01*
X1036010D01*
X1038168Y167099D01*
X1039998Y168322D01*
X1041221Y170152D01*
X1041650Y172310D01*
Y179310D01*
X1041221Y181469D01*
X1039998Y183298D01*
X1038168Y184521D01*
X1036010Y184950D01*
D02*
G37*
G36*
X1236478Y173270D02*
X1229360D01*
Y166152D01*
X1230320D01*
X1232677Y166621D01*
X1234675Y167955D01*
X1236010Y169953D01*
X1236478Y172310D01*
Y173270D01*
D02*
G37*
G36*
X1224280D02*
X1217162D01*
Y172310D01*
X1217630Y169953D01*
X1218965Y167955D01*
X1220963Y166621D01*
X1223320Y166152D01*
X1224280D01*
Y173270D01*
D02*
G37*
G36*
X1260346Y130342D02*
X1256794D01*
X1253310Y129649D01*
X1250029Y128290D01*
X1247075Y126316D01*
X1244564Y123805D01*
X1242590Y120851D01*
X1241231Y117570D01*
X1240538Y114086D01*
Y110534D01*
X1241231Y107050D01*
X1242590Y103769D01*
X1244564Y100815D01*
X1247075Y98304D01*
X1250029Y96330D01*
X1253310Y94971D01*
X1256794Y94278D01*
X1260346D01*
X1263830Y94971D01*
X1267111Y96330D01*
X1270065Y98304D01*
X1272576Y100815D01*
X1274550Y103769D01*
X1275909Y107050D01*
X1276602Y110534D01*
Y114086D01*
X1275909Y117570D01*
X1274550Y120851D01*
X1272576Y123805D01*
X1270065Y126316D01*
X1267111Y128290D01*
X1263830Y129649D01*
X1260346Y130342D01*
D02*
G37*
G36*
X1158746D02*
X1155194D01*
X1151710Y129649D01*
X1148429Y128290D01*
X1145475Y126316D01*
X1142964Y123805D01*
X1140990Y120851D01*
X1139631Y117570D01*
X1138938Y114086D01*
Y110534D01*
X1139631Y107050D01*
X1140990Y103769D01*
X1142964Y100815D01*
X1145475Y98304D01*
X1148429Y96330D01*
X1151710Y94971D01*
X1155194Y94278D01*
X1158746D01*
X1162230Y94971D01*
X1165511Y96330D01*
X1168465Y98304D01*
X1170976Y100815D01*
X1172950Y103769D01*
X1174309Y107050D01*
X1175002Y110534D01*
Y114086D01*
X1174309Y117570D01*
X1172950Y120851D01*
X1170976Y123805D01*
X1168465Y126316D01*
X1165511Y128290D01*
X1162230Y129649D01*
X1158746Y130342D01*
D02*
G37*
G36*
X1066036D02*
X1062484D01*
X1059000Y129649D01*
X1055719Y128290D01*
X1052765Y126316D01*
X1050254Y123805D01*
X1048280Y120851D01*
X1046921Y117570D01*
X1046228Y114086D01*
Y110534D01*
X1046921Y107050D01*
X1048280Y103769D01*
X1050254Y100815D01*
X1052765Y98304D01*
X1055719Y96330D01*
X1059000Y94971D01*
X1062484Y94278D01*
X1066036D01*
X1069520Y94971D01*
X1072801Y96330D01*
X1075755Y98304D01*
X1078266Y100815D01*
X1080240Y103769D01*
X1081599Y107050D01*
X1082292Y110534D01*
Y114086D01*
X1081599Y117570D01*
X1080240Y120851D01*
X1078266Y123805D01*
X1075755Y126316D01*
X1072801Y128290D01*
X1069520Y129649D01*
X1066036Y130342D01*
D02*
G37*
G36*
X964436D02*
X960884D01*
X957400Y129649D01*
X954119Y128290D01*
X951165Y126316D01*
X948654Y123805D01*
X946680Y120851D01*
X945321Y117570D01*
X944628Y114086D01*
Y110534D01*
X945321Y107050D01*
X946680Y103769D01*
X948654Y100815D01*
X951165Y98304D01*
X954119Y96330D01*
X957400Y94971D01*
X960884Y94278D01*
X964436D01*
X967920Y94971D01*
X971201Y96330D01*
X974155Y98304D01*
X976666Y100815D01*
X978640Y103769D01*
X979999Y107050D01*
X980692Y110534D01*
Y114086D01*
X979999Y117570D01*
X978640Y120851D01*
X976666Y123805D01*
X974155Y126316D01*
X971201Y128290D01*
X967920Y129649D01*
X964436Y130342D01*
D02*
G37*
G36*
X1482090Y64377D02*
Y46990D01*
X1499477D01*
X1498820Y50296D01*
X1497309Y53942D01*
X1495116Y57225D01*
X1492325Y60016D01*
X1489043Y62209D01*
X1485396Y63720D01*
X1482090Y64377D01*
D02*
G37*
G36*
X1477010D02*
X1473705Y63720D01*
X1470058Y62209D01*
X1466775Y60016D01*
X1463984Y57225D01*
X1461791Y53942D01*
X1460280Y50296D01*
X1459623Y46990D01*
X1477010D01*
Y64377D01*
D02*
G37*
G36*
X46990D02*
Y46990D01*
X64377D01*
X63720Y50296D01*
X62209Y53942D01*
X60016Y57225D01*
X57225Y60016D01*
X53942Y62209D01*
X50296Y63720D01*
X46990Y64377D01*
D02*
G37*
G36*
X41910D02*
X38605Y63720D01*
X34957Y62209D01*
X31675Y60016D01*
X28884Y57225D01*
X26691Y53942D01*
X25180Y50296D01*
X24523Y46990D01*
X41910D01*
Y64377D01*
D02*
G37*
G36*
X1499477Y41910D02*
X1482090D01*
Y24523D01*
X1485396Y25180D01*
X1489043Y26691D01*
X1492325Y28884D01*
X1495116Y31675D01*
X1497309Y34957D01*
X1498820Y38605D01*
X1499477Y41910D01*
D02*
G37*
G36*
X1477010D02*
X1459623D01*
X1460280Y38605D01*
X1461791Y34957D01*
X1463984Y31675D01*
X1466775Y28884D01*
X1470058Y26691D01*
X1473705Y25180D01*
X1477010Y24523D01*
Y41910D01*
D02*
G37*
G36*
X64377D02*
X46990D01*
Y24523D01*
X50296Y25180D01*
X53942Y26691D01*
X57225Y28884D01*
X60016Y31675D01*
X62209Y34957D01*
X63720Y38605D01*
X64377Y41910D01*
D02*
G37*
G36*
X41910D02*
X24523D01*
X25180Y38605D01*
X26691Y34957D01*
X28884Y31675D01*
X31675Y28884D01*
X34957Y26691D01*
X38605Y25180D01*
X41910Y24523D01*
Y41910D01*
D02*
G37*
%LPD*%
D10*
X538480Y334010D02*
X737870Y533400D01*
X463550Y334010D02*
X538480D01*
X737870Y533400D02*
X942340D01*
X979170Y570230D01*
X551180Y410210D02*
X685800Y544830D01*
X463550Y410210D02*
X551180D01*
X558800Y384810D02*
X718820Y544830D01*
X463550Y384810D02*
X558800D01*
X165986Y267970D02*
X166288Y267668D01*
X127000Y267970D02*
X165986D01*
D18*
X1007110Y669760D02*
D03*
X899795D02*
D03*
X792480D02*
D03*
D19*
X1007110Y569760D02*
D03*
X899795D02*
D03*
X792480D02*
D03*
D20*
Y358740D02*
D03*
D21*
Y433740D02*
D03*
D24*
X44450Y971550D02*
D03*
X762000Y190500D02*
D03*
Y825500D02*
D03*
X44450Y44450D02*
D03*
X1479550Y971550D02*
D03*
Y44450D02*
D03*
D25*
X424180Y689610D02*
D03*
Y664210D02*
D03*
Y638810D02*
D03*
Y613410D02*
D03*
Y588010D02*
D03*
Y562610D02*
D03*
Y537210D02*
D03*
Y511810D02*
D03*
Y486410D02*
D03*
Y461010D02*
D03*
Y435610D02*
D03*
Y410210D02*
D03*
Y384810D02*
D03*
Y359410D02*
D03*
Y334010D02*
D03*
Y308610D02*
D03*
Y283210D02*
D03*
Y257810D02*
D03*
X197866Y435610D02*
D03*
Y461010D02*
D03*
Y486410D02*
D03*
Y511810D02*
D03*
Y537210D02*
D03*
Y562610D02*
D03*
Y588010D02*
D03*
Y613410D02*
D03*
Y638810D02*
D03*
Y664210D02*
D03*
Y689610D02*
D03*
Y410210D02*
D03*
Y384810D02*
D03*
Y257810D02*
D03*
Y308610D02*
D03*
Y334010D02*
D03*
Y359410D02*
D03*
Y283210D02*
D03*
X1123950Y801370D02*
D03*
X1149350D02*
D03*
X1174750D02*
D03*
X1200150D02*
D03*
X1225550D02*
D03*
X1250950D02*
D03*
X1276350D02*
D03*
X298450Y909320D02*
D03*
X273050D02*
D03*
X1178560Y461010D02*
D03*
Y486410D02*
D03*
Y511810D02*
D03*
Y537210D02*
D03*
Y562610D02*
D03*
Y588010D02*
D03*
D26*
X1032510Y175810D02*
D03*
X1226820D02*
D03*
D27*
X1019810Y201210D02*
D03*
X1007110Y175810D02*
D03*
X994410Y201210D02*
D03*
X1188720D02*
D03*
X1201420Y175810D02*
D03*
X1214120Y201210D02*
D03*
D28*
X962660Y112310D02*
D03*
X1064260D02*
D03*
X1258570D02*
D03*
X1156970D02*
D03*
D29*
X1098550Y801370D02*
D03*
D30*
X463550Y334010D02*
D03*
X979170Y570230D02*
D03*
X685800Y544830D02*
D03*
X463550Y410210D02*
D03*
X166288Y267668D02*
D03*
X127000Y267970D02*
D03*
X718820Y544830D02*
D03*
X463550Y384810D02*
D03*
M02*
